<?xml version="1.0" encoding="UTF-8"?>
<svg version="1.1" xmlns="http://www.w3.org/2000/svg" width="1000" height="1000">
<path d="M0 0 C1.78540192 0.00273422 1.78540192 0.00273422 3.60687256 0.00552368 C21.09151487 0.05059098 38.14995057 0.52099488 55.4375 3.3125 C56.54416016 3.47878906 57.65082031 3.64507812 58.79101562 3.81640625 C99.94566128 10.06247389 139.72418349 23.13254923 176.62402344 42.37109375 C178.40063925 43.29336496 180.18852971 44.19381296 181.9765625 45.09375 C217.71728922 63.31393704 249.49594346 89.3836412 277.8125 117.5625 C278.46645752 118.21178467 279.12041504 118.86106934 279.79418945 119.5300293 C284.21036895 123.96083376 288.36208513 128.56819092 292.4375 133.3125 C293.29472656 134.28832031 294.15195312 135.26414063 295.03515625 136.26953125 C345.88594838 195.17908599 377.12209886 268.66526638 388.4375 345.3125 C388.60266113 346.36663086 388.76782227 347.42076172 388.93798828 348.50683594 C394.75759563 386.84282228 393.65123249 428.07866397 387.4375 466.3125 C387.33095093 466.97713257 387.22440186 467.64176514 387.11462402 468.32653809 C376.9302347 531.33269095 352.2833399 591.85377541 314.4375 643.3125 C313.95071777 643.9832959 313.46393555 644.6540918 312.96240234 645.34521484 C305.61974047 655.46042713 297.78839856 665.01480509 289.4375 674.3125 C288.94813965 674.85970703 288.4587793 675.40691406 287.95458984 675.97070312 C281.88778454 682.72939114 275.59356457 689.25019722 269.1875 695.6875 C268.5380542 696.34161865 267.8886084 696.9957373 267.21948242 697.66967773 C262.78911317 702.08541973 258.19709233 706.25497082 253.4375 710.3125 C252.48037109 711.12968506 252.48037109 711.12968506 251.50390625 711.96337891 C226.16302996 733.43273243 198.37178659 751.98300629 168.40136719 766.36523438 C166.42890198 767.31664723 164.46827605 768.28975843 162.5078125 769.265625 C130.62732905 784.93713494 95.59554324 794.82559345 60.625 800.5625 C59.70904053 800.71364258 58.79308105 800.86478516 57.84936523 801.02050781 C38.88616696 803.9437603 20.03925803 804.68600073 0.875 804.625 C-0.91040192 804.62226578 -0.91040192 804.62226578 -2.73187256 804.61947632 C-20.21651487 804.57440902 -37.27495057 804.10400512 -54.5625 801.3125 C-55.66916016 801.14621094 -56.77582031 800.97992187 -57.91601562 800.80859375 C-99.07066128 794.56252611 -138.84918349 781.49245077 -175.74902344 762.25390625 C-177.52563925 761.33163504 -179.31352971 760.43118704 -181.1015625 759.53125 C-216.84228922 741.31106296 -248.62094346 715.2413588 -276.9375 687.0625 C-277.59145752 686.41321533 -278.24541504 685.76393066 -278.91918945 685.0949707 C-283.33536895 680.66416624 -287.48708513 676.05680908 -291.5625 671.3125 C-292.41972656 670.33667969 -293.27695312 669.36085938 -294.16015625 668.35546875 C-345.01094838 609.44591401 -376.24709886 535.95973362 -387.5625 459.3125 C-387.72766113 458.25836914 -387.89282227 457.20423828 -388.06298828 456.11816406 C-393.88259563 417.78217772 -392.77623249 376.54633603 -386.5625 338.3125 C-386.40267639 337.31555115 -386.40267639 337.31555115 -386.23962402 336.29846191 C-376.08290143 273.46347041 -351.56282683 212.51435835 -313.5625 161.3125 C-313.0380127 160.60399902 -312.51352539 159.89549805 -311.97314453 159.16552734 C-304.56181553 149.20286671 -296.82348913 139.58307388 -288.5625 130.3125 C-287.85407959 129.51730957 -287.85407959 129.51730957 -287.13134766 128.70605469 C-281.05301604 121.92549553 -274.73531541 115.39166806 -268.3125 108.9375 C-267.66313477 108.28346191 -267.01376953 107.62942383 -266.34472656 106.95556641 C-261.91427583 102.53974133 -257.32218102 98.37010478 -252.5625 94.3125 C-251.92441406 93.76770996 -251.28632813 93.22291992 -250.62890625 92.66162109 C-225.28802996 71.19226757 -197.49678659 52.64199371 -167.52636719 38.25976562 C-165.55390198 37.30835277 -163.59327605 36.33524157 -161.6328125 35.359375 C-129.75232905 19.68786506 -94.72054324 9.79940655 -59.75 4.0625 C-58.37606079 3.83578613 -58.37606079 3.83578613 -56.97436523 3.60449219 C-38.01116696 0.6812397 -19.16425803 -0.06100073 0 0 Z " fill="#FCFCFC" transform="translate(501.5625,89.6875)"/>
<path d="M0 0 C2.4024489 -0.00216415 4.80442043 -0.02030487 7.20678711 -0.03930664 C48.54790107 -0.19199382 89.17848208 11.81914751 125.50170898 31.18530273 C126.20859863 31.55606934 126.91548828 31.92683594 127.64379883 32.30883789 C157.91460566 48.30485939 186.89768139 72.91319086 207.50170898 100.18530273 C207.99670898 100.82032715 208.49170898 101.45535156 209.00170898 102.10961914 C252.96458659 158.55370286 273.83259229 232.10900451 265.25170898 303.31030273 C264.72553761 307.27864315 264.13385241 311.23255108 263.50170898 315.18530273 C263.28490479 316.56468018 263.28490479 316.56468018 263.0637207 317.97192383 C260.94601892 331.06039966 257.62441455 343.59534759 253.50170898 356.18530273 C253.11740723 357.38872314 253.11740723 357.38872314 252.7253418 358.61645508 C240.21390493 397.5871477 218.88518327 432.77678137 190.50170898 462.18530273 C189.85395508 462.86028809 189.20620117 463.53527344 188.53881836 464.23071289 C179.40918734 473.70045903 170.14603728 482.45120024 159.50170898 490.18530273 C158.84734863 490.66805664 158.19298828 491.15081055 157.51879883 491.64819336 C102.16980536 532.37250591 33.45241127 551.00674075 -34.83032227 541.08764648 C-36.72040752 540.79169348 -38.6097776 540.49112544 -40.49829102 540.18530273 C-41.77905518 539.98445068 -41.77905518 539.98445068 -43.08569336 539.77954102 C-104.74013349 529.79232069 -165.82309247 493.1193819 -203.49829102 443.18530273 C-204.26471924 442.19288574 -204.26471924 442.19288574 -205.04663086 441.18041992 C-213.38289262 430.37107509 -220.7535637 419.31808347 -227.30932617 407.34448242 C-228.38361602 405.39355442 -229.48673076 403.46351345 -230.60375977 401.53686523 C-263.68428887 342.77105505 -271.71924122 267.63093715 -254.47290039 202.65258789 C-249.30505978 184.26739942 -243.01893175 166.30222238 -234.49829102 149.18530273 C-234.13912598 148.45601562 -233.77996094 147.72672852 -233.40991211 146.9753418 C-215.57865434 111.08863443 -188.1610735 76.55693884 -155.49829102 53.18530273 C-154.12975047 52.18407031 -152.76126355 51.18276457 -151.39282227 50.18139648 C-137.47244267 40.09295163 -123.0396156 31.52456241 -107.49829102 24.18530273 C-106.7827002 23.84611816 -106.06710937 23.50693359 -105.32983398 23.1574707 C-80.46010385 11.47248815 -54.27137197 4.33248234 -26.94042969 1.45166016 C-25.44844445 1.28893338 -23.9580812 1.10855766 -22.47216797 0.89746094 C-15.02100677 -0.11922267 -7.50531773 -0.00075287 0 0 Z " fill="#053928" transform="translate(499.498291015625,227.814697265625)"/>
<path d="M0 0 C1.78540192 0.00273422 1.78540192 0.00273422 3.60687256 0.00552368 C21.09151487 0.05059098 38.14995057 0.52099488 55.4375 3.3125 C56.54416016 3.47878906 57.65082031 3.64507812 58.79101562 3.81640625 C99.94566128 10.06247389 139.72418349 23.13254923 176.62402344 42.37109375 C178.40063925 43.29336496 180.18852971 44.19381296 181.9765625 45.09375 C217.71728922 63.31393704 249.49594346 89.3836412 277.8125 117.5625 C278.46645752 118.21178467 279.12041504 118.86106934 279.79418945 119.5300293 C284.21036895 123.96083376 288.36208513 128.56819092 292.4375 133.3125 C293.29472656 134.28832031 294.15195312 135.26414063 295.03515625 136.26953125 C345.88594838 195.17908599 377.12209886 268.66526638 388.4375 345.3125 C388.60266113 346.36663086 388.76782227 347.42076172 388.93798828 348.50683594 C394.75759563 386.84282228 393.65123249 428.07866397 387.4375 466.3125 C387.33095093 466.97713257 387.22440186 467.64176514 387.11462402 468.32653809 C376.9302347 531.33269095 352.2833399 591.85377541 314.4375 643.3125 C313.95071777 643.9832959 313.46393555 644.6540918 312.96240234 645.34521484 C305.61974047 655.46042713 297.78839856 665.01480509 289.4375 674.3125 C288.94813965 674.85970703 288.4587793 675.40691406 287.95458984 675.97070312 C281.88778454 682.72939114 275.59356457 689.25019722 269.1875 695.6875 C268.5380542 696.34161865 267.8886084 696.9957373 267.21948242 697.66967773 C262.78911317 702.08541973 258.19709233 706.25497082 253.4375 710.3125 C252.48037109 711.12968506 252.48037109 711.12968506 251.50390625 711.96337891 C226.16302996 733.43273243 198.37178659 751.98300629 168.40136719 766.36523438 C166.42890198 767.31664723 164.46827605 768.28975843 162.5078125 769.265625 C130.62732905 784.93713494 95.59554324 794.82559345 60.625 800.5625 C59.70904053 800.71364258 58.79308105 800.86478516 57.84936523 801.02050781 C38.88616696 803.9437603 20.03925803 804.68600073 0.875 804.625 C-0.91040192 804.62226578 -0.91040192 804.62226578 -2.73187256 804.61947632 C-20.21651487 804.57440902 -37.27495057 804.10400512 -54.5625 801.3125 C-55.66916016 801.14621094 -56.77582031 800.97992187 -57.91601562 800.80859375 C-99.07066128 794.56252611 -138.84918349 781.49245077 -175.74902344 762.25390625 C-177.52563925 761.33163504 -179.31352971 760.43118704 -181.1015625 759.53125 C-216.84228922 741.31106296 -248.62094346 715.2413588 -276.9375 687.0625 C-277.59145752 686.41321533 -278.24541504 685.76393066 -278.91918945 685.0949707 C-283.33536895 680.66416624 -287.48708513 676.05680908 -291.5625 671.3125 C-292.41972656 670.33667969 -293.27695312 669.36085938 -294.16015625 668.35546875 C-345.01094838 609.44591401 -376.24709886 535.95973362 -387.5625 459.3125 C-387.72766113 458.25836914 -387.89282227 457.20423828 -388.06298828 456.11816406 C-393.88259563 417.78217772 -392.77623249 376.54633603 -386.5625 338.3125 C-386.40267639 337.31555115 -386.40267639 337.31555115 -386.23962402 336.29846191 C-376.08290143 273.46347041 -351.56282683 212.51435835 -313.5625 161.3125 C-313.0380127 160.60399902 -312.51352539 159.89549805 -311.97314453 159.16552734 C-304.56181553 149.20286671 -296.82348913 139.58307388 -288.5625 130.3125 C-287.85407959 129.51730957 -287.85407959 129.51730957 -287.13134766 128.70605469 C-281.05301604 121.92549553 -274.73531541 115.39166806 -268.3125 108.9375 C-267.66313477 108.28346191 -267.01376953 107.62942383 -266.34472656 106.95556641 C-261.91427583 102.53974133 -257.32218102 98.37010478 -252.5625 94.3125 C-251.92441406 93.76770996 -251.28632813 93.22291992 -250.62890625 92.66162109 C-225.28802996 71.19226757 -197.49678659 52.64199371 -167.52636719 38.25976562 C-165.55390198 37.30835277 -163.59327605 36.33524157 -161.6328125 35.359375 C-129.75232905 19.68786506 -94.72054324 9.79940655 -59.75 4.0625 C-58.37606079 3.83578613 -58.37606079 3.83578613 -56.97436523 3.60449219 C-38.01116696 0.6812397 -19.16425803 -0.06100073 0 0 Z M-92.5625 42.3125 C-93.57473633 42.58288086 -94.58697266 42.85326172 -95.62988281 43.13183594 C-132.55955236 53.15227434 -168.25708385 70.35919274 -199.5625 92.3125 C-200.38838623 92.88581055 -200.38838623 92.88581055 -201.23095703 93.47070312 C-209.3042321 99.08264096 -217.05325666 104.95612804 -224.5625 111.3125 C-225.08247559 111.74755859 -225.60245117 112.18261719 -226.13818359 112.63085938 C-244.53977776 128.02977382 -261.65327514 144.47289952 -276.5625 163.3125 C-277.38878906 164.33214844 -278.21507812 165.35179687 -279.06640625 166.40234375 C-326.06339282 224.72787674 -351.48173677 294.40403223 -359.5625 368.3125 C-359.73265625 369.82154907 -359.73265625 369.82154907 -359.90625 371.36108398 C-360.88319928 381.25007857 -360.80628263 391.19743322 -360.8125 401.125 C-360.81317474 402.09614746 -360.81384949 403.06729492 -360.81454468 404.06787109 C-360.78505769 430.93355133 -357.94175581 456.96613717 -352.5625 483.3125 C-352.37993652 484.22580078 -352.19737305 485.13910156 -352.00927734 486.08007812 C-336.62553847 561.4788648 -293.10799456 633.53706363 -235.5625 684.3125 C-235.01271484 684.80169922 -234.46292969 685.29089844 -233.89648438 685.79492188 C-177.61587893 735.71393639 -107.76031908 764.17865616 -33.5625 773.3125 C-32.20161255 773.4815686 -32.20161255 773.4815686 -30.81323242 773.65405273 C5.12557647 777.51691071 42.72073277 773.86158079 77.85107422 765.89746094 C80.23116656 765.35916556 82.6153549 764.85069428 85.00390625 764.3515625 C125.78634032 755.60811618 166.47037136 736.3094211 200.4375 712.3125 C201.58197954 711.5168527 202.72651412 710.72128457 203.87109375 709.92578125 C211.33496062 704.70167978 218.48036318 699.20152868 225.4375 693.3125 C225.95747559 692.87744141 226.47745117 692.44238281 227.01318359 691.99414062 C241.36829556 679.98142373 255.03272903 667.34322144 267.4375 653.3125 C267.91606445 652.77866699 268.39462891 652.24483398 268.88769531 651.69482422 C277.7788758 641.75675023 285.72298316 631.18188056 293.4375 620.3125 C293.88834961 619.67763672 294.33919922 619.04277344 294.80371094 618.38867188 C313.68342595 591.53555654 328.68383908 561.83032991 339.52636719 530.8828125 C340.34113702 528.5843407 341.19329623 526.30651787 342.0703125 524.03125 C358.29437765 481.38379573 362.31649439 434.56033701 361.4375 389.3125 C361.42734863 388.32942871 361.41719727 387.34635742 361.40673828 386.33349609 C360.85894136 335.7151387 347.14780026 284.80263608 325.4375 239.3125 C325.01178711 238.39968262 324.58607422 237.48686523 324.14746094 236.54638672 C311.66546379 209.85433562 295.54383228 184.75019278 276.4375 162.3125 C275.54005761 161.24114248 274.64294027 160.16951262 273.74609375 159.09765625 C262.1550731 145.32571936 249.94072867 132.22711353 236.4375 120.3125 C235.61282227 119.57870117 235.61282227 119.57870117 234.77148438 118.83007812 C216.82540944 102.91250993 197.22733074 89.2478357 176.4375 77.3125 C175.6345752 76.85085449 174.83165039 76.38920898 174.00439453 75.91357422 C160.21106129 68.04465025 146.15797932 61.26380046 131.4375 55.3125 C130.45491211 54.91401855 129.47232422 54.51553711 128.45996094 54.10498047 C114.86871728 48.65476342 101.23669133 44.32208662 86.99462891 40.92822266 C84.7110438 40.37836571 82.43925459 39.7974375 80.16796875 39.19921875 C67.12690463 35.83567919 53.77903974 34.03981648 40.4375 32.3125 C39.77435791 32.2238266 39.11121582 32.1351532 38.42797852 32.04379272 C26.04819723 30.41119739 13.79445375 29.87081564 1.3125 29.875 C0.34649872 29.87426483 -0.61950256 29.87352966 -1.61477661 29.87277222 C-32.55399608 29.93381878 -62.72124951 34.19503831 -92.5625 42.3125 Z " fill="#053827" transform="translate(501.5625,89.6875)"/>
<path d="M0 0 C3.08961876 1.33888993 4.80511804 2.65938562 6.8125 5.3515625 C7.32401611 6.02904541 7.83553223 6.70652832 8.36254883 7.40454102 C9.17308716 8.50366821 9.17308716 8.50366821 10 9.625 C10.57322998 10.39062256 11.14645996 11.15624512 11.73706055 11.94506836 C12.92445143 13.53168655 14.10892339 15.1204932 15.29052734 16.71142578 C16.82767853 18.76930285 18.38527903 20.80835268 19.95703125 22.83984375 C31.94810318 38.41018707 42.6289038 54.93005389 52.875 71.6875 C53.46394043 72.64922119 54.05288086 73.61094238 54.65966797 74.60180664 C55.20252441 75.50020264 55.74538086 76.39859863 56.3046875 77.32421875 C56.77890137 78.10885498 57.25311523 78.89349121 57.74169922 79.7019043 C59.04185519 82.07644216 60.04655222 84.46857655 61 87 C59.8984375 87.79557292 58.796875 88.59114583 57.6953125 89.38671875 C56.97593506 89.9062915 56.25655762 90.42586426 55.51538086 90.96118164 C53.89909269 92.12845502 52.28271661 93.29560669 50.66625977 94.46264648 C46.57366904 97.4176384 42.48221236 100.37415689 38.39453125 103.3359375 C30.43048564 109.10321501 22.43772359 114.82466162 14.39428711 120.48071289 C9.2340969 124.11460767 4.11067228 127.79685353 -1 131.5 C-9.00610828 137.29974149 -17.06583775 143.01947857 -25.15673828 148.70019531 C-26.84871127 149.8933164 -28.53221288 151.09842721 -30.21484375 152.3046875 C-31.11332031 152.94664062 -32.01179688 153.58859375 -32.9375 154.25 C-34.06478516 155.06210937 -34.06478516 155.06210937 -35.21484375 155.890625 C-37 157 -37 157 -39 157 C-40.46273101 155.11797411 -41.76686269 153.24554587 -43.0625 151.25 C-43.70300293 150.27317261 -43.70300293 150.27317261 -44.35644531 149.27661133 C-61.89189635 122.23723667 -77.44025416 94.2463458 -91 65 C-86.38550894 59.88157094 -80.85408018 56.24710184 -75.1875 52.375 C-74.15431641 51.66279297 -73.12113281 50.95058594 -72.05664062 50.21679688 C-69.04115084 48.13954287 -66.02118323 46.06896125 -63 44 C-61.57917049 43.02381087 -60.15856251 42.04729912 -58.73828125 41.0703125 C-56.8674639 39.78370433 -54.99637317 38.4975121 -53.12402344 37.21313477 C-44.41368128 31.23495274 -35.75331141 25.18459392 -27.08447266 19.14648438 C-23.87456191 16.91270764 -20.66218949 14.6824961 -17.44921875 12.453125 C-16.39033447 11.71795654 -15.3314502 10.98278809 -14.24047852 10.2253418 C-12.19332631 8.80415839 -10.14565307 7.38372515 -8.09741211 5.96411133 C-7.18096924 5.32755615 -6.26452637 4.69100098 -5.3203125 4.03515625 C-4.50836426 3.4719165 -3.69641602 2.90867676 -2.85986328 2.32836914 C-1.07754859 1.1323605 -1.07754859 1.1323605 0 0 Z " fill="#98EFBB" transform="translate(502,400)"/>
<path d="M0 0 C2.65464729 1.09483992 3.12058283 2.19603812 4.37939453 4.75244141 C5.01204224 6.01991211 5.01204224 6.01991211 5.6574707 7.31298828 C6.324198 8.71194336 6.324198 8.71194336 7.00439453 10.13916016 C7.4778833 11.11175781 7.95137207 12.08435547 8.43920898 13.08642578 C16.32692158 29.50506055 23.49163836 46.28421296 29.75439453 63.38916016 C30.08979248 64.30503906 30.42519043 65.22091797 30.77075195 66.16455078 C33.00439453 72.43248067 33.00439453 72.43248067 33.00439453 75.82666016 C30.97705078 77.44775391 30.97705078 77.44775391 28.06689453 79.26416016 C22.89234444 82.58631849 17.82922054 86.01434695 12.81689453 89.57666016 C12.09767822 90.08640381 11.37846191 90.59614746 10.63745117 91.12133789 C9.16125897 92.16778362 7.685431 93.21474335 6.20996094 94.26220703 C2.64601983 96.79018297 -0.92502717 99.308072 -4.49560547 101.82666016 C-9.52481232 105.37549329 -14.5524583 108.92650549 -19.57666016 112.48242188 C-21.00780262 113.49311388 -22.44071236 114.50130865 -23.87548828 115.50683594 C-27.21076696 117.84496141 -30.5193997 120.20521541 -33.77685547 122.65087891 C-34.36499023 123.08311768 -34.953125 123.51535645 -35.55908203 123.96069336 C-37.13518092 125.12040828 -38.69871797 126.29714134 -40.26123047 127.47509766 C-42.99560547 128.82666016 -42.99560547 128.82666016 -45.40966797 128.51416016 C-49.23392497 126.0185725 -52.07548494 122.83054581 -55.12060547 119.45166016 C-55.7822168 118.72994629 -56.44382812 118.00823242 -57.12548828 117.26464844 C-58.46409123 115.80332403 -59.79942001 114.33899323 -61.13134766 112.87158203 C-62.75008584 111.09597293 -64.38482335 109.3389177 -66.03466797 107.59228516 C-72.30360043 100.90783268 -77.9991856 93.91430412 -83.57666016 86.65722656 C-85.06666498 84.73498703 -86.57866173 82.83191947 -88.09716797 80.93212891 C-88.603125 80.29710449 -89.10908203 79.66208008 -89.63037109 79.0078125 C-90.6028128 77.78843687 -91.57795409 76.57120784 -92.55615234 75.35644531 C-94.54622595 72.84827647 -95.97396572 70.89157939 -96.99560547 67.82666016 C-95.97724609 67.11123047 -94.95888672 66.39580078 -93.90966797 65.65869141 C-86.23792308 60.2605994 -78.59150282 54.83106617 -70.99560547 49.32666016 C-65.18995381 45.11978409 -59.36044754 40.95062172 -53.49560547 36.82666016 C-46.8029349 32.11991521 -40.15760117 27.35106989 -33.53051758 22.55249023 C-28.32112837 18.78084017 -23.10268267 15.02251307 -17.8527832 11.30737305 C-15.13909339 9.38249544 -12.46791672 7.42194696 -9.82763672 5.39697266 C-8.85181641 4.65189453 -7.87599609 3.90681641 -6.87060547 3.13916016 C-6.02240234 2.47529297 -5.17419922 1.81142578 -4.30029297 1.12744141 C-1.99560547 -0.17333984 -1.99560547 -0.17333984 0 0 Z " fill="#70E9C4" transform="translate(572.99560546875,506.17333984375)"/>
<path d="M0 0 C6.98962467 3.19260018 12.16335595 8.95806424 17.05078125 14.74609375 C18.44474058 16.35794652 19.88562598 17.92968698 21.35546875 19.47265625 C34.19454922 32.95653545 45.03154098 48.30497942 55 64 C55.43135254 64.66999023 55.86270508 65.33998047 56.30712891 66.03027344 C57.61635652 68.073223 58.90511535 70.12761641 60.1875 72.1875 C60.58694824 72.81180908 60.98639648 73.43611816 61.39794922 74.0793457 C64.05358604 78.4365306 64.05358604 78.4365306 63.80761719 81.02294922 C62.80573676 83.47555736 61.76357009 84.27168562 59.59765625 85.77734375 C58.88150146 86.28402588 58.16534668 86.79070801 57.42749023 87.31274414 C56.64704346 87.84891357 55.86659668 88.38508301 55.0625 88.9375 C53.40862652 90.10123904 51.75498709 91.26531077 50.1015625 92.4296875 C49.25239258 93.02233398 48.40322266 93.61498047 47.52832031 94.22558594 C43.63222978 96.95992216 39.78753092 99.76390013 35.9375 102.5625 C28.59950506 107.87030833 21.22080741 113.11834759 13.8046875 118.31640625 C11.45464043 119.96540848 9.13321885 121.63784018 6.8203125 123.33984375 C5.93085937 123.99082031 5.04140625 124.64179688 4.125 125.3125 C3.38507813 125.86550781 2.64515625 126.41851562 1.8828125 126.98828125 C1.26148438 127.32214844 0.64015625 127.65601563 0 128 C-3.44984505 126.85005165 -3.64331926 126.39322919 -5.35546875 123.37109375 C-5.80486816 122.59523926 -6.25426758 121.81938477 -6.71728516 121.02001953 C-7.20245605 120.16778809 -7.68762695 119.31555664 -8.1875 118.4375 C-23.72425696 91.85087343 -42.03595301 67.20501997 -61 43 C-57.38940557 38.99881356 -53.13384363 36.22627012 -48.6875 33.25 C-46.97721607 32.09340631 -45.267611 30.93580831 -43.55859375 29.77734375 C-42.65608887 29.16616699 -41.75358398 28.55499023 -40.82373047 27.92529297 C-35.93813059 24.59416374 -31.09679173 21.19972372 -26.25 17.8125 C-17.57475327 11.75906062 -8.8402263 5.80969059 0 0 Z " fill="#AAF1B7" transform="translate(581,346)"/>
<path d="M0 0 C0.50225098 1.02544922 1.00450195 2.05089844 1.52197266 3.10742188 C11.35951493 23.15534626 21.30354807 42.9562188 33 62 C33.58040039 62.95229492 34.16080078 63.90458984 34.75878906 64.88574219 C42.55748193 77.68966608 42.55748193 77.68966608 50.99609375 90.07446289 C51.32738281 90.70989014 51.65867187 91.34531738 52 92 C50.91235081 95.26294757 50.51148783 95.62169918 47.81640625 97.4609375 C47.14544922 97.92564453 46.47449219 98.39035156 45.78320312 98.86914062 C45.05037109 99.36607422 44.31753906 99.86300781 43.5625 100.375 C42.00058627 101.45469439 40.43941182 102.53545887 38.87890625 103.6171875 C38.0708252 104.1750293 37.26274414 104.73287109 36.43017578 105.30761719 C32.58274272 107.98698287 28.79228699 110.74340768 25 113.5 C17.00680565 119.29375983 8.96870649 125.02296788 0.86962891 130.66796875 C-0.41631203 131.58414709 -1.68423054 132.52598605 -2.93603516 133.48828125 C-4.57115246 134.73163832 -6.28121696 135.875131 -8 137 C-11.40184819 135.8660506 -11.80686712 135.24209344 -13.75 132.37890625 C-14.27013672 131.61819824 -14.79027344 130.85749023 -15.32617188 130.07373047 C-15.87853516 129.24502441 -16.43089844 128.41631836 -17 127.5625 C-17.57814453 126.70285645 -18.15628906 125.84321289 -18.75195312 124.95751953 C-32.39143181 104.53198847 -44.50843744 83.32954034 -53.6875 60.5 C-54.30250366 58.97040649 -54.30250366 58.97040649 -54.92993164 57.40991211 C-57.16974789 51.65291053 -58.82813126 46.06614407 -60 40 C-59.31732056 39.5349707 -59.31732056 39.5349707 -58.62084961 39.06054688 C-48.81849846 32.37894922 -39.04639415 25.65598787 -29.3125 18.875 C-28.34731445 18.20339844 -27.38212891 17.53179687 -26.38769531 16.83984375 C-21.93968718 13.74479027 -17.49425162 10.64621575 -13.0546875 7.5390625 C-11.59911391 6.52581814 -10.14339528 5.51278208 -8.6875 4.5 C-8.02983643 4.03706543 -7.37217285 3.57413086 -6.69458008 3.09716797 C-2.22739488 0 -2.22739488 0 0 0 Z " fill="#80ECC1" transform="translate(395,476)"/>
<path d="M0 0 C20.960499 7.87988684 38.50129187 21.54202387 54.60791016 36.76416016 C56.8602116 38.86489942 59.17900301 40.88865233 61.4921875 42.921875 C66.82144045 47.70431535 72.09389699 52.58749711 75.1171875 59.171875 C74.22902344 59.7803125 73.34085937 60.38875 72.42578125 61.015625 C64.13415307 66.70283151 55.86775297 72.4252531 47.6171875 78.171875 C41.12974611 82.69037556 34.63792426 87.20153913 28.1171875 91.671875 C21.41124682 96.27038657 14.73037329 100.90456361 8.0546875 105.546875 C7.07822266 106.22556641 6.10175781 106.90425781 5.09570312 107.60351562 C4.16306641 108.25255859 3.23042969 108.90160156 2.26953125 109.5703125 C1.38378418 110.18616211 0.49803711 110.80201172 -0.41455078 111.43652344 C-2.61105584 112.98081206 -4.77785137 114.55859056 -6.94140625 116.1484375 C-9.8828125 118.171875 -9.8828125 118.171875 -11.8828125 118.171875 C-40.96516351 39.79082434 -40.96516351 39.79082434 -28.8828125 9.171875 C-22.31602086 -3.08613606 -12.28195475 -3.68806573 0 0 Z " fill="#BEF4B2" transform="translate(413.8828125,325.828125)"/>
<path d="M0 0 C8.69741922 18.469767 15.37267279 36.85232009 20.4375 56.625 C20.61725372 57.31404419 20.79700745 58.00308838 20.98220825 58.7130127 C25.48425738 76.09877024 25.48425738 76.09877024 24 82 C21.82158899 84.44246083 20.4459514 85.61616225 17.75 87.25 C16.36717905 88.17316443 14.98436701 89.0963422 13.6015625 90.01953125 C12.85680664 90.4985791 12.11205078 90.97762695 11.34472656 91.47119141 C8.05493609 93.61620056 4.85799479 95.8850263 1.65161133 98.15209961 C-0.8795598 99.94072213 -3.42073693 101.71421149 -5.96484375 103.484375 C-9.27907945 105.79404495 -12.58383503 108.11619506 -15.87890625 110.453125 C-16.64799316 110.998479 -17.41708008 111.54383301 -18.20947266 112.10571289 C-19.65156101 113.12952294 -21.0927056 114.15466419 -22.53271484 115.18139648 C-23.18062988 115.64102783 -23.82854492 116.10065918 -24.49609375 116.57421875 C-25.05482178 116.97213623 -25.6135498 117.37005371 -26.18920898 117.7800293 C-28.40890615 119.27548929 -30.69639894 120.63825445 -33 122 C-33.28609131 121.2565332 -33.57218262 120.51306641 -33.86694336 119.74707031 C-39.82869891 104.29816094 -45.95886013 88.99594795 -53 74 C-53.4326416 73.07445312 -53.8652832 72.14890625 -54.31103516 71.1953125 C-55.65998524 68.3149783 -57.01545197 65.43784596 -58.375 62.5625 C-58.79209229 61.67957275 -59.20918457 60.79664551 -59.63891602 59.88696289 C-61.26119237 56.48789192 -62.80908333 53.28403724 -64.9140625 50.15234375 C-65.27242187 49.44207031 -65.63078125 48.73179687 -66 48 C-64.85088857 44.87910904 -63.43897561 43.29009965 -60.71875 41.44140625 C-60.05101562 40.97992188 -59.38328125 40.5184375 -58.6953125 40.04296875 C-57.60863281 39.31013672 -57.60863281 39.31013672 -56.5 38.5625 C-54.94717907 37.49195451 -53.39512005 36.4203032 -51.84375 35.34765625 C-51.04195312 34.79609863 -50.24015625 34.24454102 -49.4140625 33.67626953 C-45.56903335 31.00636964 -41.78584912 28.25285551 -38 25.5 C-29.99497571 19.69879158 -21.9341361 13.98050308 -13.84326172 8.29980469 C-12.15128873 7.1066836 -10.46778712 5.90157279 -8.78515625 4.6953125 C-7.88667969 4.05335938 -6.98820313 3.41140625 -6.0625 2.75 C-5.31097656 2.20859375 -4.55945313 1.6671875 -3.78515625 1.109375 C-2 0 -2 0 0 0 Z " fill="#8CEDBE" transform="translate(656,447)"/>
<path d="M0 0 C1.05251953 0.40412109 2.10503906 0.80824219 3.18945312 1.22460938 C11.88261604 4.62212075 20.17920604 8.48694591 28.375 12.9375 C29.01808105 13.27716797 29.66116211 13.61683594 30.32373047 13.96679688 C38.44709825 18.25929232 46.15629997 22.98338161 53.6875 28.25 C54.41122803 28.75370117 55.13495605 29.25740234 55.88061523 29.77636719 C59.26794705 32.19768066 62.14362354 34.33822993 64.375 37.9375 C56.64111065 43.50831717 48.86335408 49.00470798 40.99902344 54.38989258 C34.68958899 58.71310741 28.40496275 63.07160356 22.125 67.4375 C20.6236853 68.47994873 20.6236853 68.47994873 19.09204102 69.54345703 C18.14901123 70.19942871 17.20598145 70.85540039 16.234375 71.53125 C15.39358398 72.11583984 14.55279297 72.70042969 13.68652344 73.30273438 C11.36256153 74.8901617 11.36256153 74.8901617 9.32128906 76.71289062 C7.375 77.9375 7.375 77.9375 5.29370117 77.7890625 C2.04286618 76.34626921 -0.01485258 73.56663782 -2.3125 70.9375 C-3.38272609 69.74614704 -4.45435031 68.55604865 -5.52734375 67.3671875 C-6.05312012 66.78163086 -6.57889648 66.19607422 -7.12060547 65.59277344 C-12.8734769 59.26293437 -19.07046803 53.42380919 -25.625 47.9375 C-26.17542969 47.47327637 -26.72585938 47.00905273 -27.29296875 46.53076172 C-43.91749356 32.55936469 -61.68695572 19.55409611 -82.625 12.9375 C-63.08258555 -3.77707153 -23.18851018 -9.05684226 0 0 Z " fill="#C0F4B1" transform="translate(500.625,294.0625)"/>
<path d="M0 0 C0.95963349 3.38680404 1.02700044 6.41538953 0.93432617 9.93701172 C0.15366579 41.19555297 9.71536677 70.04652144 19.70800781 99.22070312 C21.16172552 103.47307465 22.5876547 107.73374317 24 112 C12.588361 120.35444682 1.03179027 128.45821611 -10.6796875 136.38671875 C-14.09674476 138.70036414 -17.49835431 141.03345884 -20.8828125 143.39453125 C-21.9963208 144.16966064 -21.9963208 144.16966064 -23.13232422 144.96044922 C-24.50893524 145.92061715 -25.88310508 146.88429791 -27.25439453 147.85205078 C-31.77828462 151 -31.77828462 151 -34 151 C-38.1660557 134.27265516 -41.70197766 117.27844451 -42 100 C-42.02046387 98.97068359 -42.04092773 97.94136719 -42.06201172 96.88085938 C-42.76148686 55.92976929 -42.76148686 55.92976929 -34 43 C-33.47277344 42.12472656 -32.94554687 41.24945313 -32.40234375 40.34765625 C-23.55198256 25.76443698 -12.20509671 11.91608714 0 0 Z " fill="#A4F0B7" transform="translate(362,344)"/>
<path d="M0 0 C1.29931641 1.29418945 1.29931641 1.29418945 2.6015625 3.11328125 C3.08689453 3.77859863 3.57222656 4.44391602 4.07226562 5.12939453 C4.84086914 6.21003174 4.84086914 6.21003174 5.625 7.3125 C6.70916617 8.7968683 7.79511217 10.27993822 8.8828125 11.76171875 C9.41551758 12.49052246 9.94822266 13.21932617 10.49707031 13.97021484 C13.82077623 18.45905354 17.40242124 22.73014642 21 27 C21.6482373 27.77561279 21.6482373 27.77561279 22.30957031 28.56689453 C28.95934611 36.51241593 35.86348547 44.17013615 43.01220703 51.6706543 C43.61790527 52.307854 44.22360352 52.94505371 44.84765625 53.6015625 C45.6521521 54.44195068 45.6521521 54.44195068 46.47290039 55.29931641 C48.10712955 57.11930686 49.5598227 59.02417498 51 61 C49.97003906 61.72703125 48.94007813 62.4540625 47.87890625 63.203125 C46.85978149 63.92254272 46.85978149 63.92254272 45.82006836 64.65649414 C44.2936283 65.73393269 42.76709585 66.81124038 41.24047852 67.88842773 C36.6685023 71.11474309 32.09940237 74.3450468 27.53393555 77.58056641 C25.43660511 79.06313259 23.33376397 80.53763109 21.23046875 82.01171875 C18.30968164 84.06190621 15.42380438 86.15299745 12.55078125 88.26953125 C11.11733691 89.30489439 9.68374837 90.34005792 8.25 91.375 C7.59443115 91.87008057 6.9388623 92.36516113 6.26342773 92.87524414 C4.390625 94.2109375 4.390625 94.2109375 1 96 C-3.4484343 95.25403179 -7.02057133 92.06709908 -10.625 89.4375 C-11.23891602 88.99349854 -11.85283203 88.54949707 -12.48535156 88.09204102 C-20.91202419 81.94258155 -28.84253389 75.26784306 -36.54296875 68.234375 C-38.15464463 66.76874924 -39.78192582 65.32006451 -41.42578125 63.890625 C-48.48112227 57.72423444 -54.7424371 50.95643161 -61 44 C-59.67908291 40.94233658 -58.46795581 39.30979489 -55.71875 37.44140625 C-55.05101562 36.97992187 -54.38328125 36.5184375 -53.6953125 36.04296875 C-52.60863281 35.31013672 -52.60863281 35.31013672 -51.5 34.5625 C-49.94717907 33.49195451 -48.39512005 32.4203032 -46.84375 31.34765625 C-46.04195313 30.79609863 -45.24015625 30.24454102 -44.4140625 29.67626953 C-40.5690361 27.00637155 -36.78577585 24.25295256 -33 21.5 C-26.19815206 16.56840018 -19.3562013 11.69718233 -12.48046875 6.86914062 C-11.81917969 6.40443359 -11.15789062 5.93972656 -10.4765625 5.4609375 C-9.55858887 4.81850098 -9.55858887 4.81850098 -8.62207031 4.16308594 C-7.28695479 3.20575747 -5.99251974 2.19195269 -4.7109375 1.1640625 C-3 0 -3 0 0 0 Z " fill="#66E8C7" transform="translate(461,587)"/>
<path d="M0 0 C0.64870339 3.0202423 1.29404156 6.04113979 1.9375 9.0625 C2.21110352 10.33383789 2.21110352 10.33383789 2.49023438 11.63085938 C4.3670219 20.46882244 5.18193019 28.84076831 5.1875 37.875 C5.19974609 38.91269531 5.21199219 39.95039062 5.22460938 41.01953125 C5.24279232 50.63224791 4.31367413 62.14240647 -2.48828125 69.640625 C-7.61215524 74.06521098 -12.10710014 74.41423049 -18.62890625 74.3359375 C-33.43851724 72.86012459 -48.09990914 62.60329033 -59.9375 54.125 C-60.73760498 53.55330078 -61.53770996 52.98160156 -62.36206055 52.39257812 C-63.097229 51.85310547 -63.83239746 51.31363281 -64.58984375 50.7578125 C-65.24847412 50.2745752 -65.90710449 49.79133789 -66.58569336 49.29345703 C-67.05241455 48.86661621 -67.51913574 48.43977539 -68 48 C-68 47.34 -68 46.68 -68 46 C-65.72093555 44.28840113 -63.43642781 42.69600987 -61.0625 41.125 C-59.58263883 40.12733148 -58.1034948 39.12859854 -56.625 38.12890625 C-55.47451172 37.35377686 -55.47451172 37.35377686 -54.30078125 36.56298828 C-50.68852364 34.10907559 -47.12472333 31.5882666 -43.5625 29.0625 C-42.50796631 28.31649536 -42.50796631 28.31649536 -41.43212891 27.55541992 C-39.28741251 26.03789502 -37.14357435 24.51913758 -35 23 C-29.34078645 18.98935116 -23.6763462 14.98637252 -18 11 C-17.25137695 10.4735791 -16.50275391 9.9471582 -15.73144531 9.40478516 C-13.51222001 7.84772512 -11.28820505 6.29777925 -9.0625 4.75 C-8.38179443 4.27167725 -7.70108887 3.79335449 -6.99975586 3.30053711 C-2.22986444 0 -2.22986444 0 0 0 Z " fill="#56E5CA" transform="translate(613,603)"/>
<path d="M0 0 C0.66 0 1.32 0 2 0 C2.52490382 41.08381811 -6.57490017 65.63490526 -34.4375 96.25 C-34.9337085 96.79938232 -35.42991699 97.34876465 -35.94116211 97.91479492 C-38.46091875 100.62556607 -40.65104101 102.46604405 -44 104 C-44.01458252 103.38294189 -44.02916504 102.76588379 -44.04418945 102.13012695 C-44.53049501 83.53538355 -46.03817253 65.46024519 -50.72973633 47.41430664 C-52.66992048 39.87587293 -52.66992048 39.87587293 -52 37 C-49.70717915 35.04662773 -47.59397955 33.52153889 -45.0625 31.9375 C-43.5824343 30.96751625 -42.10329686 29.99611491 -40.625 29.0234375 C-39.85800781 28.52553711 -39.09101562 28.02763672 -38.30078125 27.51464844 C-34.65949172 25.11751768 -31.11291092 22.59146334 -27.5625 20.0625 C-26.15650709 19.0660434 -24.75025472 18.0699528 -23.34375 17.07421875 C-22.63863281 16.5745459 -21.93351563 16.07487305 -21.20703125 15.56005859 C-18.8813654 13.91614213 -16.55064513 12.27959791 -14.21875 10.64453125 C-13.43943115 10.09724365 -12.6601123 9.54995605 -11.85717773 8.98608398 C-10.35773144 7.93332879 -8.85728463 6.8819968 -7.35571289 5.83227539 C-6.6827417 5.35910889 -6.00977051 4.88594238 -5.31640625 4.3984375 C-4.72287354 3.98255371 -4.12934082 3.56666992 -3.51782227 3.13818359 C-1.84643794 1.9407698 -1.84643794 1.9407698 0 0 Z " fill="#6FE9C4" transform="translate(682,552)"/>
<path d="M0 0 C0.28609131 0.71841064 0.57218262 1.43682129 0.86694336 2.17700195 C12.68828869 31.76930564 25.97748299 59.7330849 44.65625 85.703125 C45.29397339 86.59837891 45.29397339 86.59837891 45.94458008 87.51171875 C47.1127933 89.14551921 48.29613553 90.76847183 49.48046875 92.390625 C49.98191406 93.25171875 50.48335938 94.1128125 51 95 C49.4426298 99.67211061 45.62473679 101.44081632 41.6875 104.1875 C40.91470703 104.74630859 40.14191406 105.30511719 39.34570312 105.88085938 C38.59611328 106.40873047 37.84652344 106.93660156 37.07421875 107.48046875 C36.38932373 107.96410889 35.70442871 108.44774902 34.9987793 108.94604492 C33 110 33 110 29 110 C26.92250751 107.70927514 25.16032127 105.50462879 23.375 103 C22.5854895 101.91609985 22.5854895 101.91609985 21.7800293 100.81030273 C16.47418826 93.4349038 11.57997647 85.84458979 7 78 C6.6174707 77.35015137 6.23494141 76.70030273 5.84082031 76.03076172 C-5.32523123 56.80668577 -15.05802596 33.2784029 -17 11 C-14.54735411 9.15895764 -12.08699041 7.32852207 -9.625 5.5 C-8.57699219 4.71302734 -8.57699219 4.71302734 -7.5078125 3.91015625 C-6.8375 3.41386719 -6.1671875 2.91757812 -5.4765625 2.40625 C-4.85861816 1.94541016 -4.24067383 1.48457031 -3.60400391 1.00976562 C-2 0 -2 0 0 0 Z " fill="#73E9C3" transform="translate(318,529)"/>
<path d="M0 0 C3.37688837 1.18782731 5.43912089 2.68335405 8.1484375 5.01953125 C9.57349609 6.23769531 9.57349609 6.23769531 11.02734375 7.48046875 C14.55492893 10.6001019 18.07688625 13.723293 21.5546875 16.8984375 C23.69768062 18.83784628 25.88188388 20.71282424 28.0859375 22.58203125 C32.09477833 26.09674061 35.5110251 29.90903659 38.8984375 34.01953125 C39.32640625 34.52983887 39.754375 35.04014648 40.1953125 35.56591797 C66.8984375 67.48678958 66.8984375 67.48678958 66.8984375 78.01953125 C64.68257271 79.82066199 62.50730097 81.42823447 60.1484375 83.01953125 C58.88263423 83.89427334 57.61700477 84.76926701 56.3515625 85.64453125 C55.75021484 86.05316406 55.14886719 86.46179688 54.52929688 86.8828125 C53.19295501 87.81425078 51.90478688 88.81445175 50.6328125 89.83203125 C48.8984375 91.01953125 48.8984375 91.01953125 45.8984375 91.01953125 C45.46015625 90.21773438 45.021875 89.4159375 44.5703125 88.58984375 C30.77394667 63.85733427 13.52092567 41.76032695 -5.5390625 20.89453125 C-6.02318604 20.36182617 -6.50730957 19.82912109 -7.00610352 19.28027344 C-9.20745498 16.89939948 -11.39802311 14.7861041 -13.94921875 12.77734375 C-14.65949219 12.19726562 -15.36976563 11.6171875 -16.1015625 11.01953125 C-16.1015625 10.35953125 -16.1015625 9.69953125 -16.1015625 9.01953125 C-14.09434493 7.34287918 -12.10940039 5.83197268 -9.9765625 4.33203125 C-9.40679688 3.90341797 -8.83703125 3.47480469 -8.25 3.03320312 C-5.39332785 1.01730153 -3.52600459 0.02220406 0 0 Z " fill="#B4F1B3" transform="translate(615.1015625,323.98046875)"/>
<path d="M0 0 C2.81308968 1.3143219 5.16026527 2.784261 7.58203125 4.72265625 C8.25878906 5.25673096 8.93554688 5.79080566 9.6328125 6.34106445 C10.35210938 6.90913818 11.07140625 7.47721191 11.8125 8.0625 C24.68661214 18.03581059 38.17205759 25.33922293 53 32 C41.39196774 41.4949862 22.17541429 44.20160867 7.75 46.8125 C7.07163086 46.93641113 6.39326172 47.06032227 5.69433594 47.18798828 C-1.60801577 48.42323911 -7.74280416 48.15150119 -14.8125 46 C-15.896521 45.67539795 -15.896521 45.67539795 -17.00244141 45.34423828 C-22.78052685 43.53726887 -28.33685067 41.31414835 -33.875 38.875 C-34.64175049 38.53855469 -35.40850098 38.20210937 -36.19848633 37.85546875 C-39.73289113 36.24483376 -42.33976628 34.89084854 -45 32 C-33.88536579 23.9190703 -22.69950788 15.95126564 -11.42578125 8.09375 C-7.59675943 5.42376111 -3.7926562 2.72137044 0 0 Z " fill="#58E5C9" transform="translate(527,662)"/>
<path d="M0 0 C5.14666878 2.73479851 9.48374463 5.60952676 11.8125 11.125 C12.55386184 15.06163138 12.61343408 18.46127109 10.8515625 22.12109375 C6.79982879 27.56634281 1.32125906 29.78986994 -5.1875 31.125 C-17.34986316 32.24572038 -27.42394278 30.65751813 -37.1875 23.125 C-40.60867404 19.35293631 -42.33514441 16.88763147 -42.4375 11.8125 C-42.46328125 11.05324219 -42.4890625 10.29398438 -42.515625 9.51171875 C-42.08498794 6.37934681 -41.08440192 4.65147712 -39.1875 2.125 C-27.65155126 -6.56466073 -12.6347732 -5.94302295 0 0 Z " fill="#060606" transform="translate(469.1875,789.875)"/>
<path d="M0 0 C2.7415941 2.26181513 3.80202162 3.78532013 4.375 7.30078125 C4.7097554 14.19465018 2.93748341 18.73063745 -1.625 23.80859375 C-10.5223023 32.42785535 -20.29852733 34.56379282 -32.23828125 34.46875 C-38.29774571 33.71367655 -42.98280426 31.78973339 -47 27 C-48.88955705 23.2208859 -48.62019628 19.10654235 -48 15 C-43.99060018 6.56694503 -35.54160436 1.06208458 -27 -2 C-18.15678168 -4.16537709 -8.11884529 -4.36012062 0 0 Z " fill="#060606" transform="translate(644,770)"/>
<path d="M0 0 C11.57566851 29.0928306 14.71096688 58.9106946 14 90 C11.69 91.32 9.38 92.64 7 94 C6.43703502 91.89595769 5.87467147 89.79175446 5.3125 87.6875 C5.04022583 86.67695557 5.04022583 86.67695557 4.76245117 85.64599609 C3.78119827 81.99015195 2.82931844 78.3310948 1.9375 74.65234375 C-2.60861982 56.16465504 -9.05217559 38.24490747 -17.34472656 21.10375977 C-17.70791992 20.33990967 -18.07111328 19.57605957 -18.4453125 18.7890625 C-18.77031738 18.12600098 -19.09532227 17.46293945 -19.43017578 16.77978516 C-20 15 -20 15 -19 12 C-17.35766602 10.55786133 -17.35766602 10.55786133 -15.25390625 9.08203125 C-14.49916016 8.55029297 -13.74441406 8.01855469 -12.96679688 7.47070312 C-12.17337891 6.92349609 -11.37996094 6.37628906 -10.5625 5.8125 C-9.77294922 5.25369141 -8.98339844 4.69488281 -8.16992188 4.11914062 C-2.27034684 0 -2.27034684 0 0 0 Z " fill="#98ECB8" transform="translate(692,421)"/>
<path d="M0 0 C3.0913029 1.38219666 4.70372445 3.51543356 6.91796875 6.06640625 C16.84315195 17.24419952 27.2727268 27.77635024 39.10546875 36.94140625 C40.2874889 37.87760656 41.46841588 38.81518817 42.6484375 39.75390625 C48.37522488 44.29571167 54.13180916 48.72648908 60.10546875 52.94140625 C57.98046875 55.50390625 57.98046875 55.50390625 55.10546875 57.94140625 C49.90114751 57.68921447 45.46309798 55.5719785 40.79296875 53.44140625 C40.00607666 53.0846582 39.21918457 52.72791016 38.40844727 52.36035156 C18.85024486 43.37948452 -6.41049472 31.28529666 -18.89453125 12.94140625 C-15.57849589 10.25254861 -12.2424641 7.59042757 -8.89453125 4.94140625 C-8.20746094 4.38710938 -7.52039063 3.8328125 -6.8125 3.26171875 C-2.48372172 -0.07681614 -2.48372172 -0.07681614 0 0 Z " fill="#5CE5C7" transform="translate(382.89453125,642.05859375)"/>
<path d="M0 0 C3.91170358 0.5626423 5.803852 2.38378781 8.625 5.0625 C12.09355333 8.29502751 15.61179245 11.30385871 19.375 14.1875 C24.4326698 18.21136937 27.64343575 20.99467279 28.4375 27.6875 C28 31 28 31 26.875 32.9375 C24.214973 34.44484863 21.99793795 34.19986253 19 34 C19.350625 34.515625 19.70125 35.03125 20.0625 35.5625 C21.41963883 39.09106096 20.98515877 41.38775116 20 45 C17.32187295 47.44182172 15.36472462 47.93563683 11.8125 48.5625 C0.91659086 46.95490685 -7.44646664 37.52757507 -15.34228516 30.44433594 C-16.83009308 29.14803673 -18.38635561 27.93131263 -19.94921875 26.7265625 C-20.62597656 26.15679688 -21.30273438 25.58703125 -22 25 C-22 24.34 -22 23.68 -22 23 C-20.39641543 21.63620378 -18.73964875 20.33474041 -17.0625 19.0625 C-10.23136633 13.61700973 -4.84940214 7.27410321 0 0 Z " fill="#080808" transform="translate(296,715)"/>
<path d="M0 0 C1.01964844 -0.02578125 2.03929687 -0.0515625 3.08984375 -0.078125 C6.50721349 0.29908795 8.31451777 1.21783832 11.0625 3.25 C14.29133266 8.03757946 14.59506641 11.65805268 14.0625 17.25 C13.07370795 18.92334039 12.07601664 20.59151823 11.0625 22.25 C12.31983491 25.97485466 14.88552856 28.21535092 17.6875 30.875 C19.18308838 32.29510127 20.65136398 33.74594968 22.0625 35.25 C22.0625 35.91 22.0625 36.57 22.0625 37.25 C17.28948745 39.54811715 17.28948745 39.54811715 14.0625 39.25 C11.62109375 37.12109375 11.62109375 37.12109375 9.125 34.3125 C5.96372064 30.53365008 5.96372064 30.53365008 1.6015625 28.765625 C-0.70262279 29.05651882 -2.72637209 29.54851044 -4.9375 30.25 C-6.6015837 30.5959976 -8.26776903 30.93237229 -9.9375 31.25 C-9.64875 32.08144531 -9.36 32.91289062 -9.0625 33.76953125 C-8.69125 34.85621094 -8.32 35.94289062 -7.9375 37.0625 C-7.56625 38.14144531 -7.195 39.22039062 -6.8125 40.33203125 C-5.9375 43.25 -5.9375 43.25 -5.9375 46.25 C-8.12217422 47.57640935 -9.38236535 48.31509468 -11.96269226 48.01252747 C-13.9375 47.25 -13.9375 47.25 -15.78442383 43.98706055 C-16.42069627 42.54399707 -17.03963543 41.09321312 -17.64453125 39.63671875 C-17.97418381 38.87075882 -18.30383636 38.10479889 -18.64347839 37.31562805 C-19.3372447 35.69374602 -20.02352878 34.06864612 -20.70288086 32.44067383 C-21.74496952 29.94952553 -22.81475553 27.47170823 -23.88867188 24.99414062 C-24.55898274 23.4173845 -25.22765782 21.83993177 -25.89453125 20.26171875 C-26.21525101 19.51991867 -26.53597076 18.77811859 -26.8664093 18.01383972 C-29.33588442 12.02478618 -29.33588442 12.02478618 -27.9375 8.25 C-26.23510742 7.16918945 -26.23510742 7.16918945 -24.04296875 6.36328125 C-23.25212891 6.06486328 -22.46128906 5.76644531 -21.64648438 5.45898438 C-20.81439453 5.16314453 -19.98230469 4.86730469 -19.125 4.5625 C-18.30451172 4.25505859 -17.48402344 3.94761719 -16.63867188 3.63085938 C-10.96808254 1.5291081 -6.09335185 0.09220709 0 0 Z " fill="#050505" transform="translate(412.9375,168.75)"/>
<path d="M0 0 C3.63 0.33 7.26 0.66 11 1 C10.690625 2.299375 10.38125 3.59875 10.0625 4.9375 C9.88847656 5.76894531 9.71445312 6.60039062 9.53515625 7.45703125 C9.20931441 9.0053746 8.85039978 10.54784633 8.43359375 12.07421875 C6.96149343 19.03685539 9.88155155 24.58295577 12.65234375 30.83984375 C14 34 14 34 14 36 C14.66 36 15.32 36 16 36 C16.24878906 35.44957031 16.49757813 34.89914063 16.75390625 34.33203125 C18.23291647 31.56410303 20.0662708 29.20686446 21.9375 26.6875 C26.64584364 19.77452359 27.91853666 13.24615795 29 5 C32.12290635 5.48578543 34.99580359 5.9986012 38 7 C38.15646261 10.28571473 38.08764666 12.74801584 37 15.875 C34.65681419 23.19745565 35.55115574 34.10231147 39 41 C49.48050829 32.69125479 55.16345375 26.54921369 57 13 C58.48206495 13.254496 59.96068615 13.52911762 61.4375 13.8125 C62.67306641 14.03873047 62.67306641 14.03873047 63.93359375 14.26953125 C64.95646484 14.63111328 64.95646484 14.63111328 66 15 C67.68666688 20.06000064 65.40220469 24.58627442 63.08740234 29.23486328 C59.98588367 34.26943446 55.08584908 37.98574269 50.56982422 41.70458984 C48.4173634 43.48078846 46.33664978 45.33479649 44.25 47.1875 C43.63640625 47.71730469 43.0228125 48.24710938 42.390625 48.79296875 C41.57158034 49.50388111 40.76688674 50.23311326 40 51 C37.30917128 50.82364548 34.67148554 50.38164079 32 50 C31.49666458 47.39643759 30.99720622 44.79223349 30.5 42.1875 C30.35691406 41.44951172 30.21382812 40.71152344 30.06640625 39.95117188 C29.49073719 36.92205609 29 34.090804 29 31 C28.34 31 27.68 31 27 31 C26.61714844 31.82757813 26.61714844 31.82757813 26.2265625 32.671875 C24.8004523 35.37875933 23.18583203 37.78265118 21.375 40.25 C20.74335937 41.14203125 20.11171875 42.0340625 19.4609375 42.953125 C15.89151937 45.92197437 13.54710005 45.36224277 9 45 C7.29699031 40.78459808 5.64470653 36.55095318 4 32.3125 C3.28457031 30.54422852 3.28457031 30.54422852 2.5546875 28.74023438 C-1.26204303 18.78947263 -2.09097523 10.45487614 0 0 Z " fill="#060606" transform="translate(544,156)"/>
<path d="M0 0 C3.96458143 0.97375684 5.31175379 1.49888068 7.5625 4.875 C8.0575 8.835 8.0575 8.835 8.5625 12.875 C13.8425 10.895 19.1225 8.915 24.5625 6.875 C24.2325 8.525 23.9025 10.175 23.5625 11.875 C23.335625 13.03 23.10875 14.185 22.875 15.375 C22.1015625 17.20703125 22.1015625 17.20703125 20.5625 18.875 C17.4609375 20.01171875 17.4609375 20.01171875 13.75 21.0625 C9.39773568 22.39923475 7.14442764 23.13372303 4.30859375 26.74609375 C2.27353322 30.83092608 0.5625 34.26871913 0.5625 38.875 C5.0175 41.35 5.0175 41.35 9.5625 43.875 C8.22916667 47.20833333 6.89583333 50.54166667 5.5625 53.875 C1.7007097 52.42954275 -1.80475026 50.64219216 -5.39453125 48.6171875 C-6.50634766 47.99199219 -7.61816406 47.36679687 -8.76367188 46.72265625 C-9.92581901 46.0651709 -11.08792791 45.40761797 -12.25 44.75 C-13.43148189 44.08435359 -14.613121 43.41898616 -15.79492188 42.75390625 C-18.67733905 41.13034066 -21.55812331 39.50394985 -24.4375 37.875 C-23.43284422 31.80030517 -20.7915489 26.5652889 -18.25 21 C-17.78013672 19.93652344 -17.31027344 18.87304688 -16.82617188 17.77734375 C-8.59029402 -0.31237433 -8.59029402 -0.31237433 0 0 Z " fill="#070707" transform="translate(787.4375,606.125)"/>
<path d="M0 0 C3.36998988 1.39447857 5.34891369 2.69782739 7 6 C6.69270816 13.35793232 4.09533631 19.69463659 1.4375 26.5 C1.01275391 27.60859375 0.58800781 28.7171875 0.15039062 29.859375 C-0.89179876 32.57609339 -1.9420795 35.28937756 -3 38 C-1.86570557 37.77280273 -1.86570557 37.77280273 -0.70849609 37.54101562 C2.73485634 36.85477338 6.17987965 36.17730846 9.625 35.5 C10.81480469 35.26152344 12.00460937 35.02304687 13.23046875 34.77734375 C14.96103516 34.43896484 14.96103516 34.43896484 16.7265625 34.09375 C18.31331787 33.77954102 18.31331787 33.77954102 19.93212891 33.45898438 C21.4507251 33.23178711 21.4507251 33.23178711 23 33 C23.99563965 32.83306641 24.9912793 32.66613281 26.01708984 32.49414062 C29 33 29 33 35 40 C27.41 47.59 19.82 55.18 12 63 C8.43688534 61.21844267 6.64354525 59.83236991 4 57 C5.55002747 53.11602311 8.00476621 50.97020381 11.125 48.25 C12.03507812 47.45078125 12.94515625 46.6515625 13.8828125 45.828125 C14.58148438 45.22484375 15.28015625 44.6215625 16 44 C15.00033203 44.09087891 15.00033203 44.09087891 13.98046875 44.18359375 C12.03981253 44.36001704 10.09831519 44.52732968 8.15625 44.6875 C6.10671947 44.89042381 4.06219859 45.1579455 2.03125 45.5 C-4.87336519 46.56224849 -4.87336519 46.56224849 -8.05859375 44.97265625 C-9.96459337 43.31316005 -11.03968778 42.35548281 -12 40 C-11.74818714 34.1795255 -9.71674161 29.32957912 -7.4375 24.0625 C-7.10814453 23.28326172 -6.77878906 22.50402344 -6.43945312 21.70117188 C-5.63366651 19.79764697 -4.81785783 17.89836975 -4 16 C-4.89203125 16.71027344 -5.7840625 17.42054688 -6.703125 18.15234375 C-7.88514562 19.08107424 -9.06745236 20.00944066 -10.25 20.9375 C-11.12978516 21.64036133 -11.12978516 21.64036133 -12.02734375 22.35742188 C-14.99328639 24.67352315 -17.31282835 26.26747255 -21 27 C-22.65 25.02 -24.3 23.04 -26 21 C-24.49137497 17.07168654 -22.24312004 15.4771799 -18.80859375 13.14453125 C-17.78185547 12.44005859 -16.75511719 11.73558594 -15.69726562 11.00976562 C-14.62154297 10.28466797 -13.54582031 9.55957031 -12.4375 8.8125 C-10.31079754 7.36126364 -8.18447431 5.90947133 -6.05859375 4.45703125 C-5.11298584 3.81741455 -4.16737793 3.17779785 -3.19311523 2.51879883 C-1.12061647 1.18019559 -1.12061647 1.18019559 0 0 Z " fill="#050505" transform="translate(256,669)"/>
<path d="M0 0 C3.22578197 0.37595857 5.01399905 1.59019805 7.390625 3.73046875 C8.01445068 4.28387939 8.63827637 4.83729004 9.28100586 5.4074707 C9.93077393 5.99488037 10.58054199 6.58229004 11.25 7.1875 C16.34711597 11.70860795 21.4497834 16.03555957 27 20 C25.38617243 23.40212299 23.41396234 26.10324519 21 29 C17.09714233 27.41332422 14.66479018 24.86649519 11.75 21.875 C10.85796875 20.96492187 9.9659375 20.05484375 9.046875 19.1171875 C8.37140625 18.41851563 7.6959375 17.71984375 7 17 C7 21.71554336 8.74158212 25.97533373 10.125 30.45703125 C10.9644953 33.85623766 11.34369881 36.52316273 11 40 C8.44975635 43.10164769 6.82300753 44.72566416 3 46 C0.65234375 45.546875 0.65234375 45.546875 -2.0625 44.75 C-3.02929688 44.47027344 -3.99609375 44.19054687 -4.9921875 43.90234375 C-5.98476563 43.60457031 -6.97734375 43.30679688 -8 43 C-8.97195313 42.71253906 -9.94390625 42.42507813 -10.9453125 42.12890625 C-13.29963753 41.42797472 -15.6509768 40.7184648 -18 40 C-17.63648438 40.42410156 -17.27296875 40.84820313 -16.8984375 41.28515625 C-15.84246266 42.5171269 -14.78786889 43.75028215 -13.734375 44.984375 C-12.58839086 46.3161944 -11.43225477 47.63935274 -10.265625 48.953125 C-9.72421875 49.56671875 -9.1828125 50.1803125 -8.625 50.8125 C-8.12226562 51.37582031 -7.61953125 51.93914063 -7.1015625 52.51953125 C-6 54 -6 54 -6 56 C-7.95927063 57.7143618 -9.95880212 59.38405168 -12 61 C-15.83945182 59.48147523 -17.67491055 57.22197262 -20.1875 54 C-24.02100229 49.1683885 -28.03838085 44.5978427 -32.25 40.09375 C-34 38 -34 38 -35 35 C-33.02902863 32.52365136 -31.56323851 30.76590545 -29 29 C-21.64164868 28.64395074 -14.59847494 31.55545295 -7.671875 33.84375 C-4.767112 34.75844133 -1.99505739 35.48921502 1 36 C0.40846864 28.35618561 -1.51481081 21.85152106 -4.09179688 14.66601562 C-4.36443359 13.86228516 -4.63707031 13.05855469 -4.91796875 12.23046875 C-5.17344482 11.51270264 -5.4289209 10.79493652 -5.69213867 10.05541992 C-6.09217616 7.38459075 -5.42075525 6.25453043 -4 4 C-2.125 1.6875 -2.125 1.6875 0 0 Z " fill="#060606" transform="translate(732,689)"/>
<path d="M0 0 C1.7210168 1.54505249 2.92777527 2.92507126 4.12890625 4.90625 C3.12714349 12.46994709 0.22183519 19.50106524 -2.50195312 26.59082031 C-3.24606928 28.53118618 -3.97712967 30.47612395 -4.70703125 32.421875 C-7.02109416 38.52919532 -9.36691507 44.37595854 -12.87109375 49.90625 C-16.09101212 47.75963775 -17.65689436 46.60596802 -18.80859375 42.84375 C-18.87109375 39.90625 -18.87109375 39.90625 -16.87109375 36.90625 C-16.83935075 32.31938622 -19.30330149 29.90619836 -22.3359375 26.796875 C-22.92503906 26.21421875 -23.51414062 25.6315625 -24.12109375 25.03125 C-24.69472656 24.42539062 -25.26835938 23.81953125 -25.859375 23.1953125 C-27.46591565 21.5851123 -28.9737089 20.16124281 -30.87109375 18.90625 C-33.57087742 18.8029114 -33.57087742 18.8029114 -35.87109375 19.90625 C-39.37109375 20.84375 -39.37109375 20.84375 -42.87109375 20.90625 C-44.8463059 19.10873976 -46.2467394 17.04516865 -47.87109375 14.90625 C-37.76303507 9.86389278 -27.59158035 5.21483993 -16.99609375 1.28125 C-15.59786377 0.74951172 -15.59786377 0.74951172 -14.17138672 0.20703125 C-13.29111816 -0.11136719 -12.41084961 -0.42976562 -11.50390625 -0.7578125 C-10.72934082 -1.04092285 -9.95477539 -1.3240332 -9.15673828 -1.61572266 C-5.72481392 -2.3334868 -3.01066599 -1.75988826 0 0 Z " fill="#050505" transform="translate(724.87109375,242.09375)"/>
<path d="M0 0 C3.13470425 1.35940137 4.93149568 2.78834276 7.05859375 5.44921875 C7.60966797 6.13306641 8.16074219 6.81691406 8.72851562 7.52148438 C9.57446289 8.59366211 9.57446289 8.59366211 10.4375 9.6875 C10.99759766 10.38294922 11.55769531 11.07839844 12.13476562 11.79492188 C15.57649352 16.09607773 18.83760354 20.48989065 22 25 C20.60667426 28.36720387 19.0210714 29.9859524 16 32 C11.7158797 30.47547071 10.13529708 27.61196542 7.75 23.875 C7.04359375 22.77929688 6.3371875 21.68359375 5.609375 20.5546875 C5.07828125 19.71164062 4.5471875 18.86859375 4 18 C4.04189453 18.64026123 4.08378906 19.28052246 4.12695312 19.94018555 C4.293758 22.8553118 4.39741901 25.76943709 4.5 28.6875 C4.60054687 30.19860352 4.60054687 30.19860352 4.703125 31.74023438 C4.89339129 38.94656995 4.89339129 38.94656995 2.39453125 41.89306641 C-0.90284453 44.20672508 -2.97455606 45.14649199 -7.0078125 44.5703125 C-7.99523437 44.05210937 -8.98265625 43.53390625 -10 43 C-10.61713867 42.6915918 -11.23427734 42.38318359 -11.87011719 42.06542969 C-13.89494841 41.04063736 -15.88528862 39.96625643 -17.875 38.875 C-18.56335938 38.50246094 -19.25171875 38.12992188 -19.9609375 37.74609375 C-21.64294798 36.83500474 -23.32180436 35.91809685 -25 35 C-24.06652642 36.75215106 -23.1280468 38.50163563 -22.1875 40.25 C-21.66542969 41.22453125 -21.14335938 42.1990625 -20.60546875 43.203125 C-19.09244481 45.97792831 -19.09244481 45.97792831 -17.30078125 48.234375 C-16 50 -16 50 -16 52 C-18.97 53.32 -21.94 54.64 -25 56 C-33.984375 40.27734375 -33.984375 40.27734375 -35.54492188 37.53857422 C-36.44857636 35.9620307 -37.35993116 34.38984273 -38.28320312 32.82470703 C-41 28.20447531 -41 28.20447531 -41 26 C-34.69133995 21.91792585 -34.69133995 21.91792585 -31.74609375 22.26757812 C-28.56138419 23.11698501 -25.95766761 24.40184737 -23.04296875 25.94140625 C-21.93115234 26.52470703 -20.81933594 27.10800781 -19.67382812 27.70898438 C-18.52333984 28.32064453 -17.37285156 28.93230469 -16.1875 29.5625 C-15.00616542 30.18482609 -13.82452763 30.80657697 -12.64257812 31.42773438 C-9.75868614 32.94619179 -6.8780186 34.47044807 -4 36 C-4.06058594 35.31486328 -4.12117187 34.62972656 -4.18359375 33.92382812 C-4.45930382 30.78285418 -4.72968978 27.64144307 -5 24.5 C-5.09539063 23.42234375 -5.19078125 22.3446875 -5.2890625 21.234375 C-6.35322238 8.76850212 -6.35322238 8.76850212 -6 4 C-3 1.5 -3 1.5 0 0 Z " fill="#040404" transform="translate(687,731)"/>
<path d="M0 0 C5.28052957 0.76895406 10.01581838 2.83737504 14.9375 4.8125 C15.81857422 5.15603516 16.69964844 5.49957031 17.60742188 5.85351562 C30.09227329 10.83810424 30.09227329 10.83810424 34 16 C34.67784783 19.06726144 34.59045016 21.91963265 34 25 C30.73758909 28.83813048 27.82653811 29.30476459 23 30 C23.54140625 31.37285156 23.54140625 31.37285156 24.09375 32.7734375 C24.5578125 33.96195313 25.021875 35.15046875 25.5 36.375 C25.9640625 37.55835938 26.428125 38.74171875 26.90625 39.9609375 C28 43 28 43 28 45 C20.42574434 43.94312712 20.42574434 43.94312712 17 42 C16.12890625 39.171875 16.12890625 39.171875 15.5625 35.75 C14.44862315 31.21548484 14.44862315 31.21548484 11.45849609 27.80419922 C7.50654975 25.64445154 3.31014823 24.26192842 -1 23 C-1.30679687 23.93070313 -1.61359375 24.86140625 -1.9296875 25.8203125 C-2.86336609 28.59408759 -3.88608055 31.29476705 -5 34 C-8.40312738 32.94124926 -11.01353231 31.99097846 -14 30 C-13.38322878 26.01819754 -12.12472659 22.88684355 -10.3125 19.296875 C-9.77882813 18.2346875 -9.24515625 17.1725 -8.6953125 16.078125 C-7.85613281 14.43070313 -7.85613281 14.43070313 -7 12.75 C-6.16082031 11.079375 -6.16082031 11.079375 -5.3046875 9.375 C-1.1541718 1.1541718 -1.1541718 1.1541718 0 0 Z " fill="#060606" transform="translate(372,764)"/>
<path d="M0 0 C2.94989119 1.12178961 5.71416255 2.46120904 8.49609375 3.94921875 C8.71925982 15.58303766 8.58083553 27.10183966 7.55859375 38.69921875 C7.47174316 39.69252197 7.38489258 40.6858252 7.29541016 41.70922852 C6.63559514 48.67021597 6.63559514 48.67021597 5.49609375 50.94921875 C-0.37890625 49.07421875 -0.37890625 49.07421875 -1.50390625 47.94921875 C-1.57617127 46.09634373 -1.58771845 44.24087997 -1.56640625 42.38671875 C-1.55738281 41.37480469 -1.54835938 40.36289063 -1.5390625 39.3203125 C-1.52746094 38.53785156 -1.51585937 37.75539062 -1.50390625 36.94921875 C-2.36757813 36.68625 -3.23125 36.42328125 -4.12109375 36.15234375 C-8.58746424 34.56384247 -12.56167856 32.29121782 -16.69921875 29.99609375 C-19.40291651 28.65910629 -19.40291651 28.65910629 -21.79296875 29.671875 C-23.57255376 30.8726532 -23.57255376 30.8726532 -24.75390625 32.63671875 C-27.3731714 34.60116761 -29.53257717 33.90610829 -32.6640625 33.46875 C-34.50390625 32.94921875 -34.50390625 32.94921875 -36.50390625 30.94921875 C-17.24435819 11.12149945 -17.24435819 11.12149945 -8.56640625 4.13671875 C-8.01903809 3.68192139 -7.47166992 3.22712402 -6.90771484 2.75854492 C-4.53360869 0.92190899 -3.04609299 -0.06177724 0 0 Z " fill="#040404" transform="translate(637.50390625,182.05078125)"/>
<path d="M0 0 C1.30517578 1.40429688 1.30517578 1.40429688 2.4453125 3.21875 C2.87787354 3.89583008 3.31043457 4.57291016 3.75610352 5.27050781 C4.20783936 6.00624023 4.6595752 6.74197266 5.125 7.5 C5.59929443 8.2537793 6.07358887 9.00755859 6.56225586 9.78417969 C8.05918041 12.17906047 9.53338626 14.58645024 11 17 C11.71905518 18.18239258 11.71905518 18.18239258 12.45263672 19.38867188 C13.83226926 21.67017092 15.2010707 23.95759702 16.5625 26.25 C16.97967285 26.95189453 17.3968457 27.65378906 17.82666016 28.37695312 C19.85136347 31.84019512 21.64051021 35.20812578 23 39 C18.545 39.495 18.545 39.495 14 40 C12.68 37.69 11.36 35.38 10 33 C5.32385653 33.24645416 0.66394887 33.58157133 -4 34 C-5.17949219 34.09667969 -5.17949219 34.09667969 -6.3828125 34.1953125 C-8.44218569 34.44489274 -8.44218569 34.44489274 -11 36 C-11.88093442 38.28006557 -12.45344833 40.5636911 -13.046875 42.93359375 C-14 45 -14 45 -15.953125 46.03515625 C-18.1875 46.5625 -18.1875 46.5625 -22 47 C-21.6268922 31.22771577 -17.65416439 14.68819241 -12 0 C-3.59261494 -1.26110776 -3.59261494 -1.26110776 0 0 Z " fill="#060606" transform="translate(460,158)"/>
<path d="M0 0 C4.83192802 -0.78727952 7.52096053 -1.04716661 11.59863281 1.83984375 C14.39050206 4.46675306 17.01959814 7.18811816 19.625 10 C20.97851562 11.40185547 20.97851562 11.40185547 22.359375 12.83203125 C26.97080251 17.63840249 31.43253325 22.55272943 35.73583984 27.63671875 C36.1530127 28.08660156 36.57018555 28.53648437 37 29 C37.33 29 37.66 29 38 29 C38.03758423 27.94087402 38.03758423 27.94087402 38.07592773 26.86035156 C38.19207369 23.65672491 38.31471603 20.45337882 38.4375 17.25 C38.47681641 16.13882813 38.51613281 15.02765625 38.55664062 13.8828125 C38.61948242 12.27792969 38.61948242 12.27792969 38.68359375 10.640625 C38.72025146 9.65610352 38.75690918 8.67158203 38.79467773 7.65722656 C39 5 39 5 40 1 C42.97 1 45.94 1 49 1 C47.02501099 30.13902594 47.02501099 30.13902594 45 43 C38.63471503 43.48963731 38.63471503 43.48963731 35.8125 41.3125 C35.214375 40.549375 34.61625 39.78625 34 39 C32.98486328 37.75476563 32.98486328 37.75476563 31.94921875 36.484375 C31.30597656 35.66453125 30.66273438 34.8446875 30 34 C23.77522829 26.54844846 16.89697754 19.82587468 10 13 C10 22.57 10 32.14 10 42 C7.36 42 4.72 42 2 42 C0.5752813 27.95553232 -0.29651826 14.11756362 0 0 Z " fill="#070707" transform="translate(487,154)"/>
<path d="M0 0 C1.21236328 0.01353516 1.21236328 0.01353516 2.44921875 0.02734375 C3.37154297 0.04474609 3.37154297 0.04474609 4.3125 0.0625 C3.9825 2.7025 3.6525 5.3425 3.3125 8.0625 C2.61125 8.13726562 1.91 8.21203125 1.1875 8.2890625 C-5.82429549 9.2608059 -10.68125705 10.94582522 -15.6875 16.0625 C-19.01675823 20.74426938 -19.59943339 25.47064471 -18.6875 31.0625 C-16.6247908 35.04058202 -14.48851743 37.71363184 -10.6875 40.0625 C-5.78072514 40.96674851 -0.81792751 41.09335202 3.734375 38.890625 C9.14029622 34.94796065 13.12193606 30.45164484 15.3125 24.0625 C13.0025 21.7525 10.6925 19.4425 8.3125 17.0625 C10.94886364 11.78977273 10.94886364 11.78977273 13.3125 10.0625 C16.60889922 10.47938765 18.14574806 11.56059294 20.328125 14.00390625 C20.85664063 14.58720703 21.38515625 15.17050781 21.9296875 15.77148438 C22.46851563 16.38314453 23.00734375 16.99480469 23.5625 17.625 C24.39394531 18.54829102 24.39394531 18.54829102 25.2421875 19.49023438 C26.60656545 21.00751675 27.96055855 22.53412594 29.3125 24.0625 C27.3125 26.0625 27.3125 26.0625 25.36328125 26.92578125 C22.81853494 28.33629778 21.98373221 29.76571063 20.5 32.25 C15.30134899 40.34689895 8.77709369 46.6415507 -0.56640625 49.671875 C-7.11224086 50.8773694 -14.3612565 51.39755268 -20.25 47.9375 C-24.4821457 44.79464074 -27.02228549 41.05814353 -28.6875 36.0625 C-29.38184453 27.79712959 -28.8552566 21.26649997 -23.80078125 14.55859375 C-17.52440234 7.20876784 -10.19320736 -0.14772764 0 0 Z " fill="#050505" transform="translate(306.6875,231.9375)"/>
<path d="M0 0 C6.43779643 0.73451369 6.43779643 0.73451369 9.31347656 1.09350586 C13.89689922 1.6624599 18.46914917 2.12661498 23.07421875 2.484375 C25.132856 2.67661813 27.19145029 2.86932183 29.25 3.0625 C30.73125366 3.15204956 30.73125366 3.15204956 32.24243164 3.2434082 C36.25824789 3.65657225 38.97734178 3.93981551 41.84960938 6.91748047 C43.36662708 9.35832305 44.40969757 11.1800046 45 14 C43.98519937 18.12301144 42.23104987 21.77608399 40.3203125 25.5546875 C39.80339844 26.58207031 39.28648437 27.60945312 38.75390625 28.66796875 C38.21636719 29.72628906 37.67882812 30.78460937 37.125 31.875 C36.59519531 32.92558594 36.06539062 33.97617187 35.51953125 35.05859375 C34.48886465 37.10202454 33.45669546 39.14469832 32.42285156 41.18652344 C30.60301643 44.78497574 28.79988506 48.39153479 27 52 C24.87961365 49.38485683 22.86908256 46.80362384 21 44 C21.35730573 41.35593759 22.00923814 38.9722432 22.8515625 36.44140625 C23.0769627 31.21568065 20.61180099 27.698581 18.0625 23.25 C17.11265641 21.54867373 16.16587926 19.84563066 15.22265625 18.140625 C14.79734619 17.39329102 14.37203613 16.64595703 13.93383789 15.87597656 C13 14 13 14 13 12 C10.03 11.67 7.06 11.34 4 11 C2.68 7.37 1.36 3.74 0 0 Z " fill="#050505" transform="translate(199,630)"/>
<path d="M0 0 C0.36552803 1.41377782 0.71695495 2.83120576 1.0625 4.25 C1.35833984 5.43335938 1.35833984 5.43335938 1.66015625 6.640625 C2 9 2 9 1 13 C-2.96 13.66 -6.92 14.32 -11 15 C-10.06788929 18.66811207 -9.12950314 22.33442749 -8.1875 26 C-7.79594727 27.54494141 -7.79594727 27.54494141 -7.39648438 29.12109375 C-5.90418459 34.90605833 -4.22034667 40.45246717 -2 46 C-0.58318366 45.68817931 0.83344651 45.37551263 2.25 45.0625 C3.03890625 44.88847656 3.8278125 44.71445312 4.640625 44.53515625 C6.76878703 44.052444 8.88532842 43.53836822 11 43 C13.04519535 47.34604012 14.20161508 50.13603617 14 55 C12.98421875 55.27972656 11.9684375 55.55945313 10.921875 55.84765625 C2.63157132 58.22916091 -4.36304172 60.93416078 -11.64453125 65.64453125 C-14 67 -14 67 -17 67 C-17.69906942 65.40084119 -18.38389468 63.79544955 -19.0625 62.1875 C-19.63677734 60.84751953 -19.63677734 60.84751953 -20.22265625 59.48046875 C-21 57 -21 57 -20 54 C-17.56640625 52.83203125 -17.56640625 52.83203125 -14.5625 51.8125 C-13.57378906 51.46832031 -12.58507812 51.12414062 -11.56640625 50.76953125 C-9 50 -9 50 -7 50 C-7.31453125 49.11441406 -7.6290625 48.22882812 -7.953125 47.31640625 C-11.28914052 37.66004807 -13.81429063 27.97611481 -16 18 C-16.88945312 18.15339844 -17.77890625 18.30679688 -18.6953125 18.46484375 C-21.42322649 18.90659814 -24.12822702 19.27117559 -26.875 19.5625 C-28.23625 19.706875 -29.5975 19.85125 -31 20 C-31.66 15.38 -32.32 10.76 -33 6 C-30.81375 5.938125 -28.6275 5.87625 -26.375 5.8125 C-19.27202959 5.47175841 -13.52919154 3.74717949 -6.92578125 1.05859375 C-4 0 -4 0 0 0 Z " fill="#060606" transform="translate(214,559)"/>
<path d="M0 0 C1.0715332 1.68310547 1.0715332 1.68310547 2.05078125 3.8671875 C2.60016357 5.06456543 2.60016357 5.06456543 3.16064453 6.28613281 C3.54075684 7.14045898 3.92086914 7.99478516 4.3125 8.875 C6.86717193 14.49548773 9.45158677 19.9436369 12.625 25.25 C14.38489073 28.44935318 14.99702226 29.96486268 15.3125 33.6875 C11.23929757 43.96748709 1.04416219 49.91754739 -8.72265625 54.19140625 C-11.88515172 55.314282 -13.64973069 55.591224 -17 55 C-22.99819942 51.16216901 -27.30198888 45.37363071 -31.6796875 39.8671875 C-35.27811831 35.42064169 -39.13375901 31.21356288 -43 27 C-40.15063897 23.99234114 -37.76488042 21.72154788 -34 20 C-25.85215583 29.64358367 -25.85215583 29.64358367 -22.421875 34.8125 C-21.99632324 35.44591309 -21.57077148 36.07932617 -21.13232422 36.73193359 C-20.30818237 37.97278717 -19.50169447 39.22558966 -18.71533203 40.49072266 C-16.56013826 43.7139931 -15.27015415 44.91682895 -11.5234375 46.0703125 C-7.63774529 45.99277097 -5.95908103 45.36920445 -2.75 43.25 C-1.91984375 42.71890625 -1.0896875 42.1878125 -0.234375 41.640625 C2.66543844 39.597608 2.66543844 39.597608 5 37 C5.5160134 31.96886935 4.38434753 29.27917078 1.71875 25.05078125 C1.04199219 23.95572266 0.36523438 22.86066406 -0.33203125 21.73242188 C-1.05377517 20.59187008 -1.77644186 19.45190173 -2.5 18.3125 C-3.91479987 16.06369619 -5.31839408 13.80868846 -6.71875 11.55078125 C-7.34716797 10.55731689 -7.97558594 9.56385254 -8.62304688 8.5402832 C-10 6 -10 6 -10 3 C-3.375 -1.125 -3.375 -1.125 0 0 Z " fill="#060606" transform="translate(356,194)"/>
<path d="M0 0 C2.475 0.99 2.475 0.99 5 2 C5.16853394 18.17925833 4.5761429 33.9928985 2 50 C-9.19785165 49.53632084 -20.0432237 47.21568312 -31 45 C-30.93941406 43.9790625 -30.87882813 42.958125 -30.81640625 41.90625 C-30.06394303 28.94329212 -29.51375551 15.97439144 -29 3 C-27.35 2.67 -25.7 2.34 -24 2 C-24 12.56 -24 23.12 -24 34 C-21.69 34 -19.38 34 -17 34 C-16.01413083 27.17347737 -15.68883475 20.38904442 -15.4375 13.5 C-15.39431641 12.39140625 -15.35113281 11.2828125 -15.30664062 10.140625 C-15.20137786 7.42718494 -15.09924154 4.71366583 -15 2 C-12.525 2.495 -12.525 2.495 -10 3 C-9.8860109 14.05694276 -10.08949317 24.97636372 -11 36 C-8.36 36 -5.72 36 -3 36 C-1.08491006 28.12585231 -0.59124786 20.45726378 -0.375 12.375 C-0.33632813 11.18003906 -0.29765625 9.98507812 -0.2578125 8.75390625 C-0.16444214 5.83608264 -0.07866422 2.91825079 0 0 Z " fill="#070707" transform="translate(825,499)"/>
<path d="M0 0 C9.36003696 7.32049583 12.41421239 18.74901053 14 30 C14.5571097 38.60520207 14.96356908 48.07286184 11 56 C6.29605263 54.55263158 6.29605263 54.55263158 5.0625 52.25 C5 50 5 50 5.9765625 47.3125 C8.73878254 38.37218476 7.88937938 27.51724851 4 19 C1.55324226 15.35417469 1.55324226 15.35417469 -2 13 C-4.87306228 12.49904977 -4.87306228 12.49904977 -8 13 C-12.08892203 16.15962157 -13.99107874 18.95539368 -15 24 C-15.7339391 33.05628424 -15.14511741 41.66483817 -9.6875 49.1875 C-8 52 -8 52 -8.5625 55.8125 C-9.036875 56.864375 -9.51125 57.91625 -10 59 C-11.485 59.495 -11.485 59.495 -13 60 C-14.15341698 57.77447742 -15.29781159 55.54504031 -16.4375 53.3125 C-16.76298828 52.68666016 -17.08847656 52.06082031 -17.42382812 51.41601562 C-21.10567046 44.16620237 -21.20926555 37.79135982 -21.25 29.8125 C-21.270625 28.82185547 -21.29125 27.83121094 -21.3125 26.81054688 C-21.35677326 18.37095692 -20.56954162 9.78144802 -14.4375 3.4375 C-13.83808594 2.79683594 -13.23867187 2.15617187 -12.62109375 1.49609375 C-8.83662726 -1.99655845 -4.69464388 -1.49305068 0 0 Z " fill="#060606" transform="translate(198,500)"/>
<path d="M0 0 C2.0625 1.6875 2.0625 1.6875 4 4 C4.10036941 7.6132987 2.49665583 9.84876626 0.5625 12.75 C-4.15886158 20.05037122 -4.85968318 28.45607178 -4 37 C-2.79990448 40.42027223 -2.03404334 42.24170155 0.875 44.375 C3.56970922 45.16756154 5.19806872 45.46698855 8 45 C12.97732187 41.95266008 15.3323033 38.56032411 17.31640625 33.09375 C19.0175687 25.39477478 18.81938219 16.64732189 17 9 C18.98 7.35 20.96 5.7 23 4 C27.68346974 15.83981151 25.76630131 30.48754914 21 42 C17.86016191 47.9958004 14.17970251 52.91014874 8 56 C3.85861277 56.42308868 0.12601163 56.40035969 -3.8125 55 C-8.27760896 50.91761466 -10.80204095 44.71301255 -11.23828125 38.734375 C-11.48194799 25.65331844 -9.73104797 13.01805816 -2 2 C-1.34 1.34 -0.68 0.68 0 0 Z " fill="#050505" transform="translate(797,550)"/>
<path d="M0 0 C1.32 0.33 2.64 0.66 4 1 C3.48139251 6.8625195 -0.20156766 10.8958892 -3.58203125 15.47265625 C-6.3127284 19.30052501 -6.3127284 19.30052501 -7.1171875 23.84375 C-5.96290363 26.64659591 -5.96290363 26.64659591 -1 28 C3.29 21.07 7.58 14.14 12 7 C13.32 7.66 14.64 8.32 16 9 C15.44798549 12.65585418 14.55968814 15.0566174 12.42578125 18.06640625 C11.92369141 18.79923828 11.42160156 19.53207031 10.90429688 20.28710938 C9.8374052 21.81217539 8.76440795 23.33298715 7.68554688 24.84960938 C7.18732422 25.58115234 6.68910156 26.31269531 6.17578125 27.06640625 C5.71083252 27.72584229 5.24588379 28.38527832 4.7668457 29.06469727 C3.75845037 31.01996576 3.75845037 31.01996576 4.66870117 33.16772461 C6.61120207 35.84120146 8.8851803 36.18743834 12 37 C12.27328125 36.43829102 12.5465625 35.87658203 12.828125 35.29785156 C15.0186848 31.00252888 17.53897212 26.89427809 20 22.75 C20.5465625 21.81414063 21.093125 20.87828125 21.65625 19.9140625 C22.1821875 19.02976562 22.708125 18.14546875 23.25 17.234375 C23.96929688 16.01572754 23.96929688 16.01572754 24.703125 14.77246094 C25.13109375 14.18754883 25.5590625 13.60263672 26 13 C26.66 13 27.32 13 28 13 C29.265625 15.03515625 29.265625 15.03515625 30 18 C28.71138763 20.74597161 27.44153029 22.95912775 25.75 25.4375 C25.29488037 26.13109619 24.83976074 26.82469238 24.37084961 27.53930664 C22.93546386 29.70828469 21.471495 31.85538986 20 34 C19.53287598 34.6909375 19.06575195 35.381875 18.58447266 36.09375 C17.25705337 38.05123466 15.91482396 39.99715388 14.5625 41.9375 C14.15032227 42.53425537 13.73814453 43.13101074 13.31347656 43.74584961 C10.35621508 47.88126164 10.35621508 47.88126164 7 49 C5.33349609 48.12304688 5.33349609 48.12304688 3.5234375 46.71875 C2.85634766 46.20924805 2.18925781 45.69974609 1.50195312 45.17480469 C0.80005859 44.62211914 0.09816406 44.06943359 -0.625 43.5 C-1.33978516 42.94989258 -2.05457031 42.39978516 -2.79101562 41.83300781 C-4.8681546 40.23136983 -6.93478936 38.61697194 -9 37 C-10.00804687 36.22140625 -11.01609375 35.4428125 -12.0546875 34.640625 C-14.04378069 33.10273187 -16.02604088 31.55723441 -18 30 C-17.37721629 26.80756432 -16.28132779 24.63153698 -14.453125 21.953125 C-13.9375 21.19 -13.421875 20.426875 -12.890625 19.640625 C-12.34921875 18.85171875 -11.8078125 18.0628125 -11.25 17.25 C-10.19156837 15.6934829 -9.13426733 14.13619636 -8.078125 12.578125 C-7.56443359 11.82080078 -7.05074219 11.06347656 -6.52148438 10.28320312 C-4.26944831 6.90370356 -2.12335279 3.46142091 0 0 Z " fill="#090909" transform="translate(758,651)"/>
<path d="M0 0 C3.03183978 1.16757322 5.89085421 2.40403052 8.70703125 4.0234375 C9.37669922 4.405 10.04636719 4.7865625 10.73632812 5.1796875 C11.42146484 5.57414063 12.10660156 5.96859375 12.8125 6.375 C18.13201395 9.42926638 23.4917062 12.29828367 29 15 C28.505 17.475 28.505 17.475 28 20 C22.17953521 18.25913591 17.27631051 15.46083001 12.0234375 12.4609375 C8.95938749 10.70995043 8.95938749 10.70995043 5 11 C2.78007456 13.68135815 2.78007456 13.68135815 3.10913086 16.02636719 C4.31683986 18.70192749 5.65064658 19.2678751 8.25390625 20.578125 C9.10791016 21.01640625 9.96191406 21.4546875 10.84179688 21.90625 C11.73962891 22.3496875 12.63746094 22.793125 13.5625 23.25 C14.46419922 23.70890625 15.36589844 24.1678125 16.29492188 24.640625 C18.52402715 25.77286895 20.75881466 26.89191288 23 28 C22.34 29.65 21.68 31.3 21 33 C18.43623236 31.73167312 15.87397788 30.46043635 13.3125 29.1875 C12.59126953 28.83107422 11.87003906 28.47464844 11.12695312 28.10742188 C8.04436362 26.573165 5.04926524 25.02998465 2.10546875 23.23828125 C0.11977641 21.83101659 0.11977641 21.83101659 -2 22 C-4.04169485 24.90548882 -5 26.40142046 -5 30 C6.385 35.94 6.385 35.94 18 42 C17.34 43.32 16.68 44.64 16 46 C11.5719906 45.46270506 8.41262164 44.39129401 4.55859375 42.1640625 C3.56279297 41.59429688 2.56699219 41.02453125 1.54101562 40.4375 C0.51685547 39.839375 -0.50730469 39.24125 -1.5625 38.625 C-2.59052734 38.03460937 -3.61855469 37.44421875 -4.67773438 36.8359375 C-9.14408758 34.2655411 -13.58586703 31.65911625 -18 29 C-16.57091424 25.02079009 -14.66433497 21.76373523 -12.3046875 18.26171875 C-11.58925781 17.19501953 -10.87382812 16.12832031 -10.13671875 15.02929688 C-9.38291335 13.91529633 -8.62900583 12.80136489 -7.875 11.6875 C-7.11285478 10.55432318 -6.35113164 9.42086235 -5.58984375 8.28710938 C-3.73069414 5.5219185 -1.86729186 2.75969621 0 0 Z " fill="#090909" transform="translate(335,744)"/>
<path d="M0 0 C4.14511983 2.17962943 6.61432715 4.31935615 9 8.375 C9.18789841 11.9450698 9.08774462 14.15207325 6.6484375 16.89453125 C0.90663714 21.80193205 -3.89595385 21.87273782 -11.21484375 21.72265625 C-17.7476342 21.12263731 -20.95985759 18.36413885 -25.5 13.9375 C-27.39258708 10.70433041 -27.69127049 9.06177593 -27 5.375 C-20.135401 -3.01506544 -9.90214643 -3.9941431 0 0 Z " fill="#F9F9F9" transform="translate(463,793.625)"/>
<path d="M0 0 C1.83913097 1.20403538 3.44869808 2.57369808 5.00390625 4.12890625 C5.37168252 8.46866622 5.37442163 11.2026178 3.75390625 15.25390625 C-1.75096311 21.00899694 -8.87149717 24.44749215 -16.87109375 24.75390625 C-21.71274547 24.47404199 -24.39800534 23.34824851 -27.99609375 20.12890625 C-29.62633189 16.86842996 -29.46344725 14.7508959 -28.99609375 11.12890625 C-25.77315298 5.70345423 -21.33231738 2.00209273 -15.4609375 -0.24609375 C-10.39592273 -1.53040811 -4.89508617 -2.13621177 0 0 Z " fill="#F9F9F9" transform="translate(633.99609375,773.87109375)"/>
<path d="M0 0 C-0.33 1.98 -0.66 3.96 -1 6 C-2.05058594 5.89300781 -3.10117187 5.78601563 -4.18359375 5.67578125 C-15.44995002 4.49808345 -15.44995002 4.49808345 -26 8 C-29.58271707 11.0602375 -31.78667166 13.08004493 -32.3125 17.8125 C-31.92835642 21.7307645 -30.70743683 23.21293267 -28 26 C-23.31688192 28.34155904 -17.07736557 27.50173752 -12 27 C-7.66484787 25.4106419 -4.25677431 23.25677431 -1 20 C1.72869407 20.03287583 4.2966618 20.56397771 7 21 C4.53758865 27.26795617 -0.905672 29.5991614 -6.71875 32.16796875 C-14.51982214 35.0132228 -24.66839276 35.47902096 -32.5625 32.8125 C-37.18621514 30.37454111 -40.32055281 28.03834156 -42 23 C-42.52229846 18.50480837 -42.43816069 14.9715737 -40.5625 10.8125 C-34.85582296 4.54907398 -28.10962794 1.15533133 -20 -1 C-19.34257813 -1.185625 -18.68515625 -1.37125 -18.0078125 -1.5625 C-11.78270098 -2.91894453 -5.94580755 -2.0241047 0 0 Z " fill="#070707" transform="translate(591,783)"/>
<path d="M0 0 C0.495 2.475 0.495 2.475 1 5 C-7.58 5.33 -16.16 5.66 -25 6 C-25 8.64 -25 11.28 -25 14 C-17.08 14 -9.16 14 -1 14 C-1 15.65 -1 17.3 -1 19 C-8.92 19.33 -16.84 19.66 -25 20 C-25.33 24.62 -25.66 29.24 -26 34 C-29.96 34 -33.92 34 -38 34 C-37.34 23.11 -36.68 12.22 -36 1 C-31.359375 0.835 -26.71875 0.67 -21.9375 0.5 C-20.48722412 0.44779297 -19.03694824 0.39558594 -17.54272461 0.34179688 C-15.80261108 0.28088867 -15.80261108 0.28088867 -14.02734375 0.21875 C-12.84906006 0.17685547 -11.67077637 0.13496094 -10.45678711 0.09179688 C-6.96942838 -0.00081185 -3.48841149 -0.01558196 0 0 Z " fill="#040404" transform="translate(524,790)"/>
<path d="M0 0 C2.64 1.32 5.28 2.64 8 4 C6.5568569 8.06572896 4.57687668 11.31257187 2.12109375 14.8515625 C1.74896255 15.39227386 1.37683136 15.93298523 0.99342346 16.49008179 C-0.18730684 18.20493687 -1.37426875 19.91533556 -2.5625 21.625 C-3.75383929 23.34210709 -4.9436704 25.06017282 -6.12913513 26.78134155 C-7.20157175 28.33809359 -8.27948114 29.89107125 -9.35766602 31.44384766 C-11.12476128 33.96301648 -11.12476128 33.96301648 -12 37 C-11.34644531 37.21398437 -10.69289063 37.42796875 -10.01953125 37.6484375 C-5.89045959 39.49663775 -2.37721121 42.02670471 1.3125 44.625 C2.05306641 45.140625 2.79363281 45.65625 3.55664062 46.1875 C5.37422697 47.45394726 7.18850838 48.72485759 9 50 C7.54805748 53.7508515 7.54805748 53.7508515 5.06665039 54.87890625 C1.42666767 55.09218817 -0.93535519 52.24687187 -3.5625 50 C-9.45963733 45.14531735 -15.43485446 40.92568907 -22 37 C-21.35907729 33.81115055 -20.23447491 31.43537676 -18.55859375 28.65625 C-18.06077393 27.82714111 -17.5629541 26.99803223 -17.05004883 26.14379883 C-16.51790771 25.27134521 -15.9857666 24.3988916 -15.4375 23.5 C-14.89826904 22.60885498 -14.35903809 21.71770996 -13.8034668 20.79956055 C-2.92875163 2.92875163 -2.92875163 2.92875163 0 0 Z " fill="#070707" transform="translate(671,201)"/>
<path d="M0 0 C0.33 0 0.66 0 1 0 C1.09796875 0.91136719 1.1959375 1.82273437 1.296875 2.76171875 C3.13612245 18.69657813 6.18498818 34.42203506 10 50 C8.2126038 51.33905267 6.41995047 52.67109066 4.625 54 C3.62726563 54.7425 2.62953125 55.485 1.6015625 56.25 C-1 58 -1 58 -3 58 C-7.94566862 41.27739605 -4.34069617 17.87124963 -1 1 C-0.67 0.67 -0.34 0.34 0 0 Z " fill="#8BE7B7" transform="translate(301,458)"/>
<path d="M0 0 C2.02725715 4.0186984 4.01887935 8.0527375 5.98144531 12.10327148 C6.65131529 13.47400014 7.33012958 14.84040009 8.01855469 16.2019043 C12.50463425 25.09232 15.68645364 32.7665471 14 43 C12.96484375 45.36010742 12.96484375 45.36010742 12 47 C9.36 46.67 6.72 46.34 4 46 C4.1546875 45.41919678 4.309375 44.83839355 4.46875 44.23999023 C6.85829183 34.16460131 2.57034291 27.05564182 -2 18.4375 C-2.67614872 17.1304196 -3.35064332 15.82248212 -4.0234375 14.51367188 C-5.66332108 11.3323317 -7.32534452 8.16320278 -9 5 C-6.36100018 2.25574092 -3.98481207 0 0 0 Z " fill="#080808" transform="translate(374,183)"/>
<path d="M0 0 C16.6734447 2.86045552 34.73798454 8.69997742 49 18 C45.97039803 21.26264827 42.94751519 23.9054001 39 26 C34.70494951 24.85274111 31.7804776 22.40149757 28.375 19.625 C21.99529697 14.53569152 15.21656232 10.21221143 8.27294922 5.93603516 C7.48807129 5.45183105 6.70319336 4.96762695 5.89453125 4.46875 C5.19175049 4.04013672 4.48896973 3.61152344 3.76489258 3.16992188 C2 2 2 2 0 0 Z " fill="#BEEEAB" transform="translate(545,293)"/>
<path d="M0 0 C2.88928623 2.88928623 4 4.51521154 4 8.625 C2.75785272 11.5750998 1.45182146 12.92975341 -1 15 C-4.234375 16.265625 -4.234375 16.265625 -7.75 17.25 C-8.92046875 17.58515625 -10.0909375 17.9203125 -11.296875 18.265625 C-12.63492187 18.62914062 -12.63492187 18.62914062 -14 19 C-14.8709379 17.27921959 -15.72114558 15.54793677 -16.5625 13.8125 C-17.27599609 12.36810547 -17.27599609 12.36810547 -18.00390625 10.89453125 C-19.11157057 7.67578905 -19.21886673 6.16246503 -18 3 C-12.39859074 0.04652966 -6.30019454 -1.37782032 0 0 Z " fill="#F6F6F6" transform="translate(414,176)"/>
<path d="M0 0 C2.116354 3.174531 2.25407735 4.13455338 1.6171875 7.76171875 C-0.04636091 13.79471394 -2.53003771 19.79505657 -6 25 C-9.59391114 23.66511872 -12.75490696 22.03977277 -16 20 C-15.37519982 15.8702232 -14.00002716 12.59706884 -12.125 8.875 C-11.61195313 7.84117187 -11.09890625 6.80734375 -10.5703125 5.7421875 C-7.69627442 0.72334489 -5.95696844 -0.76046406 0 0 Z " fill="#F5F5F5" transform="translate(788,617)"/>
<path d="M0 0 C4.65162486 0.55791603 8.1612564 1.84941801 12.3125 4 C13.36050781 4.53625 14.40851563 5.0725 15.48828125 5.625 C18 7 18 7 19 8 C19.1875 10.9375 19.1875 10.9375 19 14 C17 16 17 16 13.125 16.4375 C6.87676067 16.34576402 1.55792249 13.63319509 -4 11 C-3.27758802 6.88295306 -1.97646289 3.69512628 0 0 Z " fill="#F4F4F4" transform="translate(378,772)"/>
<path d="M0 0 C3.63311384 2.08724673 6.91449298 4.38555566 10.1875 7 C11.04730469 7.680625 11.90710938 8.36125 12.79296875 9.0625 C15 11 15 11 17 14 C16.48275862 17.51724138 16.48275862 17.51724138 15 19 C10.70559569 19.51468516 7.96083928 19.31794416 4.47265625 16.8125 C3.32209017 15.89204714 2.18539717 14.95401138 1.0625 14 C0.47404297 13.52304687 -0.11441406 13.04609375 -0.72070312 12.5546875 C-2.15954757 11.38489527 -3.5815718 10.19446585 -5 9 C-4.32084333 4.68914241 -3.3222714 2.89359122 0 0 Z " fill="#F4F4F4" transform="translate(292,736)"/>
<path d="M0 0 C-1.87724961 6.37732315 -3.85671642 12.70695459 -6 19 C-9.94874362 17.66531083 -12.38812736 16.0199164 -15.3125 13.0625 C-16.00988281 12.37285156 -16.70726562 11.68320312 -17.42578125 10.97265625 C-19 9 -19 9 -19 6 C-16.20964954 4.99619084 -13.41785145 3.9968055 -10.625 3 C-9.43390625 2.57074219 -9.43390625 2.57074219 -8.21875 2.1328125 C-7.45820312 1.86210937 -6.69765625 1.59140625 -5.9140625 1.3125 C-4.8614624 0.93544922 -4.8614624 0.93544922 -3.78759766 0.55078125 C-2 0 -2 0 0 0 Z " fill="#F0F0F0" transform="translate(719,250)"/>
<path d="M0 0 C2.99108955 1.19536375 4.96796014 2.98057185 7.3671875 5.12109375 C8.24761719 5.889375 9.12804687 6.65765625 10.03515625 7.44921875 C12.33588527 10.04749196 13.0697712 11.42319291 13.1796875 14.87109375 C12.5196875 15.53109375 11.8596875 16.19109375 11.1796875 16.87109375 C6.31733998 16.63307674 3.58802916 15.10189216 -0.1328125 12.05859375 C-0.99519531 11.37152344 -1.85757812 10.68445313 -2.74609375 9.9765625 C-4.85152255 7.83941349 -5.65996208 6.84374376 -5.8203125 3.87109375 C-2.84827257 -0.20170171 -2.84827257 -0.20170171 0 0 Z " fill="#F2F2F2" transform="translate(302.8203125,726.12890625)"/>
<path d="M0 0 C0 6.27 0 12.54 0 19 C-4.88021201 18.18663133 -6.9117976 17.77939233 -10.875 15.4375 C-11.65617188 14.98246094 -12.43734375 14.52742187 -13.2421875 14.05859375 C-13.82226562 13.70925781 -14.40234375 13.35992187 -15 13 C-13.4451236 8.96472554 -10.82178919 6.92491445 -7.5 4.25 C-6.5203125 3.45078125 -5.540625 2.6515625 -4.53125 1.828125 C-2 0 -2 0 0 0 Z " fill="#F5F5F5" transform="translate(637,193)"/>
<path d="M0 0 C4.04356581 1.34785527 5.41250936 4.0449701 7.6875 7.4375 C8.10322266 8.03626953 8.51894531 8.63503906 8.94726562 9.25195312 C12 13.72829433 12 13.72829433 12 16 C6.51324804 17.86783046 1.77807024 18.2358396 -4 18 C-3.48914188 11.56318772 -2.27057103 6.04057576 0 0 Z " fill="#F0F0F0" transform="translate(454,168)"/>
<path d="M0 0 C2.29141286 -0.05384521 4.58318188 -0.09272087 6.875 -0.125 C8.78925781 -0.15980469 8.78925781 -0.15980469 10.7421875 -0.1953125 C14 0 14 0 16 2 C13.36 6.62 10.72 11.24 8 16 C3.44615385 11.44615385 3.44615385 11.44615385 1.75 8 C1.41484375 7.34 1.0796875 6.68 0.734375 6 C0 4 0 4 0 0 Z " fill="#F0F0F0" transform="translate(219,643)"/>
</svg>
